<?xml version="1.0" encoding="UTF-8"?>
<svg xmlns="http://www.w3.org/2000/svg" xmlns:xlink="http://www.w3.org/1999/xlink" viewBox="0 0 3710 3710">
  <defs>
    <style>
      .cls-1 {
        fill: url(#linear-gradient-12);
      }

      .cls-1, .cls-2, .cls-3, .cls-4, .cls-5, .cls-6, .cls-7, .cls-8, .cls-9, .cls-10, .cls-11, .cls-12, .cls-13, .cls-14, .cls-15, .cls-16, .cls-17, .cls-18, .cls-19, .cls-20, .cls-21 {
        stroke-width: 0px;
      }

      .cls-2 {
        fill: url(#linear-gradient-17);
      }

      .cls-3 {
        fill: url(#linear-gradient);
      }

      .cls-4 {
        opacity: .48;
      }

      .cls-4, .cls-22, .cls-23, .cls-15 {
        mix-blend-mode: soft-light;
      }

      .cls-4, .cls-15, .cls-19 {
        fill: #fff;
      }

      .cls-24, .cls-23 {
        opacity: .5;
      }

      .cls-5 {
        fill: url(#linear-gradient-6);
      }

      .cls-6 {
        fill: #f4f7fa;
      }

      .cls-25 {
        isolation: isolate;
      }

      .cls-7 {
        fill: url(#linear-gradient-15);
      }

      .cls-8 {
        fill: url(#linear-gradient-11);
      }

      .cls-9 {
        fill: url(#linear-gradient-5);
      }

      .cls-10 {
        fill: url(#linear-gradient-7);
      }

      .cls-10, .cls-26 {
        mix-blend-mode: multiply;
        opacity: .3;
      }

      .cls-11 {
        fill: url(#linear-gradient-13);
      }

      .cls-27 {
        opacity: .15;
      }

      .cls-12 {
        fill: url(#linear-gradient-16);
      }

      .cls-13 {
        fill: url(#linear-gradient-14);
      }

      .cls-14 {
        fill: url(#linear-gradient-2);
      }

      .cls-15 {
        opacity: .74;
      }

      .cls-16 {
        fill: url(#linear-gradient-3);
      }

      .cls-17 {
        fill: url(#linear-gradient-9);
      }

      .cls-18 {
        fill: url(#linear-gradient-8);
      }

      .cls-20 {
        fill: url(#linear-gradient-10);
      }

      .cls-21 {
        fill: url(#linear-gradient-4);
      }
    </style>
    <linearGradient id="linear-gradient" x1="1630.18" y1="2949.1" x2="1432.62" y2="3032.07" gradientUnits="userSpaceOnUse">
      <stop offset="0" stop-color="#40447e"/>
      <stop offset="1" stop-color="#3c3b6b"/>
    </linearGradient>
    <linearGradient id="linear-gradient-2" x1="1309.87" y1="2121.11" x2="1108.05" y2="2205.88" xlink:href="#linear-gradient"/>
    <linearGradient id="linear-gradient-3" x1="441.31" y1="2167.24" x2="2309.11" y2="2167.24" xlink:href="#linear-gradient"/>
    <linearGradient id="linear-gradient-4" x1="1621.94" y1="1713.03" x2="185.96" y2="4060.55" gradientUnits="userSpaceOnUse">
      <stop offset="0" stop-color="#ffc444"/>
      <stop offset="1" stop-color="#f36f56"/>
    </linearGradient>
    <linearGradient id="linear-gradient-5" x1="620.81" y1="2214.74" x2="2200.91" y2="2214.74" gradientTransform="translate(-340.3 113.08) rotate(-7.02)" xlink:href="#linear-gradient-4"/>
    <linearGradient id="linear-gradient-6" x1="441.31" y1="2861.99" x2="3255.08" y2="2861.99" xlink:href="#linear-gradient"/>
    <linearGradient id="linear-gradient-7" x1="717.25" y1="2840.2" x2="2778.88" y2="2840.2" xlink:href="#linear-gradient"/>
    <linearGradient id="linear-gradient-8" x1="2445.28" y1="320.3" x2="1168.54" y2="2873.78" gradientUnits="userSpaceOnUse">
      <stop offset="0" stop-color="#ff9085"/>
      <stop offset="1" stop-color="#fb6fbb"/>
    </linearGradient>
    <linearGradient id="linear-gradient-9" x1="1869.61" y1="222.77" x2="2133.37" y2="1277.85" gradientUnits="userSpaceOnUse">
      <stop offset="0" stop-color="#ab316d"/>
      <stop offset="1" stop-color="#792d3d"/>
    </linearGradient>
    <linearGradient id="linear-gradient-10" x1="1325.08" y1="1230.3" x2="2695.02" y2="1230.3" xlink:href="#linear-gradient-8"/>
    <linearGradient id="linear-gradient-11" x1="2173.61" y1="1692.62" x2="3216.43" y2="1692.62" gradientUnits="userSpaceOnUse">
      <stop offset="0" stop-color="#e38ddd"/>
      <stop offset="1" stop-color="#9571f6"/>
    </linearGradient>
    <linearGradient id="linear-gradient-12" x1="2701.42" y1="957.98" x2="2597.8" y2="1894.54" xlink:href="#linear-gradient"/>
    <linearGradient id="linear-gradient-13" x1="2263.24" y1="1698.81" x2="3135.26" y2="1698.81" xlink:href="#linear-gradient-11"/>
    <linearGradient id="linear-gradient-14" x1="3115.8" y1="2459.35" x2="2832.4" y2="3000.12" gradientUnits="userSpaceOnUse">
      <stop offset="0" stop-color="#aa80f9"/>
      <stop offset="1" stop-color="#6165d7"/>
    </linearGradient>
    <linearGradient id="linear-gradient-15" x1="2917.75" y1="2866.22" x2="2592.47" y2="3256.16" xlink:href="#linear-gradient-11"/>
    <linearGradient id="linear-gradient-16" x1="1379.87" y1="836.59" x2="378" y2="2840.33" gradientTransform="translate(-340.3 113.08) rotate(-7.02)" gradientUnits="userSpaceOnUse">
      <stop offset="0" stop-color="#fb6fbb"/>
      <stop offset="1" stop-color="#ff9085"/>
    </linearGradient>
    <linearGradient id="linear-gradient-17" x1="1252.28" y1="2302.33" x2="2347.65" y2="2302.33" xlink:href="#linear-gradient-11"/>
  </defs>
  <g class="cls-25">
    <g id="Background">
      <rect class="cls-19" width="3710" height="3710"/>
    </g>
    <g id="Illustration">
      <g id="Cross-platform_software" data-name="Cross-platform software">
        <circle class="cls-6" cx="1804.57" cy="1855" r="1400"/>
        <g>
          <path class="cls-3" d="M3255.08,2842.23l-2813.77-23.16v68.53c0,18.6,12.27,34.41,28.89,37.23l795.65,134.94c9.44,1.6,19.02,2.03,28.55,1.27l1930.1-153.85c17.23-1.37,30.58-17.24,30.58-36.35v-28.6Z"/>
          <g>
            <path class="cls-14" d="M2233.97,2731.15l-1763.57,125.36c-31.56,2.24-57.22-21.59-57.22-53.25v-1268.13c0-31.65,25.66-57.31,57.22-57.31h1763.57c26,0,47.02,23.2,47.02,51.81v1146.37c0,28.61-21.02,53.3-47.02,55.15Z"/>
            <path class="cls-16" d="M2262.09,2731.15l-1763.57,125.36c-31.56,2.24-57.22-21.59-57.22-53.25v-1268.13c0-31.65,25.66-57.31,57.22-57.31h1763.57c26,0,47.02,23.2,47.02,51.81v1146.37c0,28.61-21.02,53.3-47.02,55.15Z"/>
            <path class="cls-21" d="M2245.95,1593.89v1011.24c0,23.53-17.34,43.75-38.81,45.2l-328.6,21.77-1189.21,78.85-124.77,8.28c-25.66,1.68-46.54-17.89-46.54-43.72v-1110.26c0-25.83,20.88-46.88,46.54-46.98l622.48-2.58,211.01-.89,168.08-.69,147.81-.62,493.21-2.06c21.46-.07,38.81,18.92,38.81,42.45Z"/>
            <g class="cls-26">
              <path class="cls-9" d="M2081.93,2257.48c29.23-4.95,50.79-32.76,48.18-62.16l-8.89-100.21c-2.61-29.4-28.4-49.32-57.63-44.44l-56.39,9.34c-12.16-45.57-28.99-88.64-50-128.86l48.01-37.64c24.04-18.85,29.85-52.85,12.95-75.97l-57.63-78.82c-16.93-23.15-50.21-26.68-74.32-7.83l-50.55,39.46c-32.56-30.81-68.52-57.9-107.19-80.91l26.75-59.89c12.47-27.92.82-59.24-26.03-69.96l-15.25-6.08-147.81.62-.04.03-27.51,61.37c-43.89-9.24-89.53-14.05-136.38-13.91l-4.16-46.81-211.01.89c-.69,4.33-.86,8.76-.45,13.22l5.84,65.87c-45.88,14.56-89.84,33.62-131.4,56.53l-37.98-51.41c-17.34-23.46-51.45-27.06-76.17-8.04l-84.52,64.98c-24.83,19.06-30.88,53.61-13.46,77.1l37.3,50.31c-34.41,35.06-65.39,73.39-92.45,114.26l-57.66-22.46c-27.58-10.75-60.38,3.54-73.25,31.94l-43.93,96.88c-12.91,28.47-.96,60.21,26.72,70.89l55.09,21.33c-13.91,46.67-23.15,94.89-27.2,143.97l-58.52,9.69c-30.43,5.05-52.96,33.48-50.28,63.5l9.07,102.38c2.68,30.02,29.5,50.18,59.93,45.06l55.26-9.31c11.3,47.77,27.65,93,48.53,135.14l-43.48,33.97c-24.97,19.47-31.05,54.23-13.53,77.62l8.86,11.85,1189.21-78.85c15.35-20.23,29.67-41.21,42.9-62.85l44.2,17.1c26.72,10.3,58.38-4.05,70.78-32.11l42.17-95.51c12.36-27.99.79-59.1-25.86-69.48l-46.47-18.13c12.4-47.02,20.02-95.47,22.43-144.69l53.23-8.96ZM1392.52,2689.65c-225.29,38.98-425.14-111.79-445.13-336.98-19.99-225.16,147.68-437.43,373.18-473.94,224.16-36.27,420.91,115.05,440.66,337.77,19.75,222.68-144.76,434.45-368.71,473.15Z"/>
            </g>
            <path class="cls-19" d="M1442.59,1512.51c0,11.78-9.08,21.36-20.29,21.4-11.22.03-20.33-9.51-20.33-21.32s9.11-21.39,20.33-21.4c11.21,0,20.29,9.54,20.29,21.32Z"/>
            <path class="cls-4" d="M1837.19,2383.34c-135.96-73.58-242.86,19.65-346.02-72.34-62.55-55.77-31.84-97.36-108.8-180.7-85.24-92.31-140.74-61.28-226.41-144.36-108.32-105.05-54.14-186.77-147.45-262.19-113.19-91.5-235.26-6.81-343.01-94.56-46.47-37.85-71.97-92.87-85.29-151.38h-105.43c-18.47,0-33.48,15.06-33.48,33.64v1314.53c0,18.58,15,32.57,33.48,31.25l1797.36-128.33c8.82-.63,16.64-5.81,21.66-13.32-131.57-4.82-212.4-49.19-264.07-95.05-101.08-89.72-83.55-178.2-192.55-237.19Z"/>
          </g>
          <path class="cls-5" d="M2332.38,2725.46l-1891.07,131.95,824.54,139.84c9.44,1.6,19.02,2.03,28.55,1.27l1960.68-156.29-892.61-115.87c-9.98-1.3-20.05-1.6-30.08-.9Z"/>
          <polygon class="cls-10" points="717.25 2860.73 2291.62 2749.24 2778.88 2811.98 1218.06 2931.17 717.25 2860.73"/>
        </g>
        <g>
          <g>
            <path class="cls-18" d="M2707.25,674.56l-1396.22-47.53c-46.72-1.59-84.75,35.21-84.75,82.21v1018.99c0,47,38.03,84.22,84.75,83.14l1396.22-32.11c40.47-.93,73.16-36.94,73.16-80.43v-943.03c0-43.49-32.68-79.86-73.16-81.24Z"/>
            <path class="cls-15" d="M1253.43,1706.82v-975.86c0-43.49,35.15-77.6,78.35-76.18l1357.4,44.44c37.58,1.23,67.94,34.94,67.94,75.29v905.38c0,40.35-30.36,73.72-67.94,74.54l-1357.4,29.45c-43.2.94-78.35-33.56-78.35-77.05Z"/>
            <path class="cls-17" d="M2707.25,674.56l-1396.22-47.53c-46.72-1.59-84.75,35.21-84.75,82.21v61.04l1554.12,42.01v-56.49c0-43.49-32.68-79.86-73.16-81.24Z"/>
            <path class="cls-19" d="M1376.99,705.58c0,15.27-12.3,27.29-27.48,26.85-15.21-.44-27.56-13.21-27.56-28.52s12.35-27.33,27.56-26.85c15.19.48,27.48,13.25,27.48,28.52Z"/>
            <path class="cls-19" d="M1472.94,708.49c0,15.2-12.18,27.17-27.23,26.73-15.07-.44-27.3-13.15-27.3-28.39s12.23-27.21,27.3-26.73c15.05.48,27.23,13.18,27.23,28.38Z"/>
            <path class="cls-19" d="M1568.02,711.37c0,15.13-12.07,27.04-26.98,26.61-14.93-.43-27.05-13.08-27.05-28.25s12.12-27.08,27.05-26.61c14.91.47,26.98,13.12,26.98,28.25Z"/>
            <polygon class="cls-20" points="2695.02 1425.29 1325.08 1431.76 1325.08 1028.84 2695.02 1048.97 2695.02 1425.29"/>
            <polygon class="cls-19" points="2695.02 1520.32 1325.08 1533.5 1325.08 1490.24 2695.02 1479.91 2695.02 1520.32"/>
            <polygon class="cls-19" points="2695.02 1619.45 1325.08 1639.64 1325.08 1596.37 2695.02 1579.04 2695.02 1619.45"/>
            <g>
              <polygon class="cls-19" points="2061.85 941.54 1325.08 927.09 1325.08 970.36 2061.85 983.27 2061.85 941.54"/>
              <polygon class="cls-19" points="2616.85 952.42 2616.85 992.99 2695.02 994.36 2695.02 953.95 2616.85 952.42"/>
            </g>
            <g class="cls-23">
              <path class="cls-19" d="M2163.84,1196.53c-163.11-237.34-445.25-162.44-623.61-424.45-32.16-47.24-53.97-95.29-68.94-139.59l-160.26-5.46c-46.72-1.59-84.75,35.21-84.75,82.21v1018.99c0,47,38.03,84.22,84.75,83.14l1061.89-24.42c-31.78-45.68-61.12-96.73-85.94-153.76-95.19-218.67-24.69-293.42-123.14-436.67Z"/>
            </g>
            <g class="cls-22">
              <polygon class="cls-19" points="1516.34 1129.95 1349.46 1128.17 1349.46 1080.31 1516.34 1082.46 1516.34 1129.95"/>
              <polygon class="cls-19" points="2407.81 1139.44 1622.87 1131.08 1622.87 1083.83 2407.81 1093.93 2407.81 1139.44"/>
              <polygon class="cls-19" points="1785.55 1212.91 1622.87 1211.79 1622.87 1164.54 1785.55 1166.02 1785.55 1212.91"/>
              <polygon class="cls-19" points="2655.21 1218.88 1889.43 1213.62 1889.43 1166.96 2655.21 1173.91 2655.21 1218.88"/>
              <polygon class="cls-19" points="1785.55 1293.01 1622.87 1292.51 1622.87 1245.26 1785.55 1246.12 1785.55 1293.01"/>
              <polygon class="cls-19" points="2655.21 1295.68 1889.43 1293.33 1889.43 1246.67 2655.21 1250.72 2655.21 1295.68"/>
              <polygon class="cls-19" points="1516.34 1373.3 1349.46 1373.42 1349.46 1325.56 1516.34 1325.81 1516.34 1373.3"/>
              <polygon class="cls-19" points="2407.81 1372.66 1622.87 1373.22 1622.87 1325.97 2407.81 1327.15 2407.81 1372.66"/>
            </g>
          </g>
          <g>
            <path class="cls-8" d="M3146.89,916.46l-896.39-9.45c-42.39-.45-76.89,35.47-76.89,80.23v1415.06c0,44.76,34.5,78.67,76.89,75.75l896.39-61.75c38.47-2.65,69.55-39.17,69.55-81.58V993.98c0-42.41-31.07-77.11-69.55-77.52Z"/>
            <path class="cls-15" d="M2198.23,2380.8V1007.31c0-41.42,31.89-74.71,71.09-74.35l860.38,7.95c35.72.33,64.58,32.49,64.58,71.84v1304.5c0,39.34-28.86,73.19-64.58,75.6l-860.38,58.15c-39.2,2.65-71.09-28.78-71.09-70.2Z"/>
            <path class="cls-1" d="M3146.89,916.46l-896.39-9.45c-42.39-.45-76.89,35.47-76.89,80.23v58.14l1042.82,3.68v-55.08c0-42.41-31.07-77.11-69.55-77.52Z"/>
            <path class="cls-19" d="M3147.19,981.52c0,14.42-10.97,26.05-24.51,25.97-13.56-.07-24.57-11.85-24.57-26.31s11.01-26.09,24.57-25.97c13.54.11,24.51,11.89,24.51,26.31Z"/>
            <polygon class="cls-11" points="3135.26 2071.71 2263.24 2115.84 2263.24 1289.46 3135.26 1281.78 3135.26 2071.71"/>
            <polygon class="cls-19" points="3135.26 2164.36 2263.24 2212.77 2263.24 2171.55 3135.26 2124.96 3135.26 2164.36"/>
            <polygon class="cls-19" points="3135.26 2261.01 2263.24 2313.88 2263.24 2272.66 3135.26 2221.61 3135.26 2261.01"/>
            <g>
              <polygon class="cls-19" points="2932.99 1189.92 2263.24 1192.53 2263.24 1233.75 2932.99 1229.74 2932.99 1189.92"/>
              <polygon class="cls-19" points="3060.96 1189.43 3060.96 1228.98 3135.26 1228.53 3135.26 1189.14 3060.96 1189.43"/>
            </g>
            <g class="cls-27">
              <path class="cls-19" d="M2911.35,1762.24c-144.13-189.76-324.96-195.19-425.65-398.24-72.9-146.99-62.56-314.36-30.2-454.82l-204.99-2.16c-42.39-.45-76.89,35.47-76.89,80.23v1415.06c0,44.76,34.5,78.67,76.89,75.75l805.94-55.52c24.81-358.36-61.42-550.15-145.09-660.3Z"/>
            </g>
            <g class="cls-22">
              <polygon class="cls-19" points="2413.24 1372.13 2320.61 1373.37 2320.75 1332.17 2413.4 1331.21 2413.24 1372.13"/>
              <polygon class="cls-19" points="2911.14 1365.46 2472.47 1371.34 2472.63 1330.59 2911.32 1326.04 2911.14 1365.46"/>
              <polygon class="cls-19" points="2562.79 1439.24 2472.2 1440.93 2472.36 1400.19 2562.95 1398.78 2562.79 1439.24"/>
              <polygon class="cls-19" points="3049.89 1430.21 2620.72 1438.17 2620.88 1397.88 3050.08 1391.21 3049.89 1430.21"/>
              <polygon class="cls-19" points="2562.51 1508.35 2471.94 1510.5 2472.09 1469.77 2562.67 1467.9 2562.51 1508.35"/>
              <polygon class="cls-19" points="3049.56 1496.8 2620.43 1506.97 2620.6 1466.7 3049.76 1457.82 3049.56 1496.8"/>
              <polygon class="cls-19" points="2412.45 1581.76 2319.85 1584.43 2320 1543.26 2412.61 1540.86 2412.45 1581.76"/>
              <polygon class="cls-19" points="2910.2 1567.39 2471.67 1580.05 2471.82 1539.33 2910.38 1528 2910.2 1567.39"/>
              <polygon class="cls-19" points="2561.95 1646.5 2471.4 1649.58 2471.56 1608.88 2562.12 1606.07 2561.95 1646.5"/>
              <polygon class="cls-19" points="3048.91 1629.94 2619.86 1644.53 2620.03 1604.27 3049.1 1590.98 3048.91 1629.94"/>
              <polygon class="cls-19" points="2561.68 1715.55 2471.13 1719.1 2471.29 1678.4 2561.84 1675.13 2561.68 1715.55"/>
              <polygon class="cls-19" points="3048.58 1696.49 2619.58 1713.29 2619.74 1673.04 3048.78 1657.53 3048.58 1696.49"/>
              <polygon class="cls-19" points="2561.4 1784.59 2470.86 1788.6 2471.02 1747.91 2561.56 1744.17 2561.4 1784.59"/>
              <polygon class="cls-19" points="3048.26 1763.02 2619.29 1782.02 2619.46 1741.78 3048.45 1724.07 3048.26 1763.02"/>
              <polygon class="cls-19" points="2708.94 1846.29 2620.41 1850.67 2620.57 1810.45 2709.11 1806.34 2708.94 1846.29"/>
              <polygon class="cls-19" points="3114.83 1826.23 2765.57 1843.49 2765.74 1803.71 3115.03 1787.49 3114.83 1826.23"/>
              <polygon class="cls-19" points="2411.14 1930.77 2318.59 1935.83 2318.74 1894.71 2411.3 1889.93 2411.14 1930.77"/>
              <polygon class="cls-19" points="2908.63 1903.62 2470.32 1927.54 2470.48 1886.88 2908.81 1864.27 2908.63 1903.62"/>
              <polygon class="cls-19" points="2560.56 1991.58 2470.06 1996.99 2470.21 1956.34 2560.73 1951.2 2560.56 1991.58"/>
              <polygon class="cls-19" points="3047.28 1962.51 2618.44 1988.13 2618.61 1947.92 3047.47 1923.6 3047.28 1962.51"/>
              <polygon class="cls-19" points="2560.29 2060.55 2469.79 2066.42 2469.94 2025.78 2560.45 2020.18 2560.29 2060.55"/>
              <polygon class="cls-19" points="3046.95 2028.98 2618.16 2056.8 2618.32 2016.6 3047.14 1990.07 3046.95 2028.98"/>
            </g>
          </g>
        </g>
        <g>
          <g>
            <path class="cls-13" d="M2802.03,3157.9c-33.05-2.62-75.33-11.81-115.91-38.34-43.91-28.7-101.09-87.69-86.17-124.87,5.57-13.88,21.62-25.76,35.72-24.63,20.84,1.67,23.26,30.61,59.44,62.09,6.69,5.82,41.26,35.9,58.44,25.76,8.54-5.04,11.07-19,9.68-29.62-4.07-31.04-41.97-35.81-78.4-69.41-36.94-34.07-67.73-93.49-50.13-133.67,10.11-23.09,36.87-41.32,54.45-36.2,7.52,2.19,12.28,8.33,35.1,57.63,18.73,40.46,22.89,52.26,34.97,56.09,12.43,3.95,31.75-1.01,39.1-13.25,19.13-31.89-63.54-78.98-71.05-168.22-3.36-39.99,7.46-99.27,43.67-111.98,24.48-8.59,59.37,4.53,71.98,26.99,11.37,20.25-2.44,35.48,6.23,80.97,2.63,13.8,8.05,42.21,19.48,43.7,13.42,1.75,28.43-34.47,31.9-43.29,26.12-66.41-3.83-100.56,20.8-132.8,19.21-25.14,61-35.23,94.1-22.54,28.97,11.11,52.14,40,53.69,69.95,1.58,30.47-24.05,60.79-75.3,121.45-24.3,28.76-43.64,48.2-42.54,76.79.54,13.94,6.06,33.54,16.05,35.33,22.03,3.95,32.88-84.77,85.1-98.47,26.73-7.01,59.94,6.77,74.54,30.86,17.88,29.52,5.9,71.36-16.56,93.36-29.31,28.71-59.37,6.89-114.53,37.72-24.47,13.68-62.92,42.77-57.29,66.84,2.45,10.48,13.43,20.74,25.48,22.1,27.01,3.07,35.93-41.2,79.36-60.66,31.29-14.02,74.55-12.5,84.83,5.14,14.51,24.91-37.02,81.47-64.42,106.46-33.12,30.21-111.23,87.5-261.82,88.69Z"/>
            <g class="cls-24">
              <path class="cls-19" d="M2816.87,3143.7c-4.37-74.04,44.68-224.86,80.36-296.15,34.91-69.77,68.31-180.14,68.65-181.24l2.17.66c-.33,1.11-33.79,111.66-68.79,181.6-35.57,71.08-84.47,221.33-80.12,295.01l-2.27.13Z"/>
            </g>
          </g>
          <path class="cls-7" d="M2724.14,3167.55c-24.88-34.55-61.39-96.88-67.93-180.28-2.7-34.36-7.97-101.48,33.1-159.38,20.47-28.86,63.87-71.53,93.19-59.22,18.87,7.92,30.58,38.05,25.26,60.97-5.37,23.1-24.9,25.24-46.16,64.45-7.87,14.51-16.86,31.54-9.95,41.16,5.77,8.03,21.61,9.5,33.49,4.68,24.54-9.95,16.87-40.51,43.4-62.42,18.86-15.58,50.31-22.91,63.88-10.14,11.78,11.08,9.73,36.97-.68,54.23-16.67,27.63-46.57,19.53-66.06,49.74-8.65,13.4-14.79,33.65-7.23,41.65,8.62,9.12,34,1.23,50.26-8.85,21.47-13.31,22.27-27.47,36.41-29.25,15.77-1.98,35.49,13.04,38.58,29.66,4.32,23.28-24.24,48.38-46.85,59.29-28.95,13.96-50.46,5.77-64.6,24.84-5.19,7-9.94,18.43-5.69,25.36,6.07,9.89,28.01,6.63,42.58,4.46,35.46-5.28,45.22-18.14,57.92-11.89,12.86,6.33,19.5,27.69,13.94,42.68-3.09,8.33-12.38,21.23-58.4,29.31-32.21,5.65-86.33,9.63-158.46-11.02Z"/>
        </g>
        <g>
          <path class="cls-12" d="M888.93,2229.67s-451.92-654.89-10.44-1175.33l-113.09-20.3,350.6-103.74-104.89,281.5-45.11-88.3s-331.41,322.57-77.07,1106.17Z"/>
          <path class="cls-2" d="M1252.28,2540s694.64,236,1045.13-286.6l46.48,95.2,3.76-337.1-223.29,163.9,89.68,17.78s-202.69,375.16-961.76,346.81Z"/>
          <path class="cls-19" d="M698.96,2248.98l5.57,62.77c1.63,18.42,18.09,30.79,36.75,27.65l33.9-5.72c6.91,29.31,16.96,57.04,29.76,82.9l-26.67,20.82c-15.32,11.95-19.04,33.27-8.31,47.61l36.55,48.81c10.71,14.31,31.78,16.19,47.04,4.22l25.22-19.78c21.04,20.53,44.44,38.51,69.74,53.59l-12.55,28c-7.84,17.5-.55,36.84,16.28,43.19l57.28,21.6c16.78,6.33,36.7-2.71,44.5-20.18l12.01-26.9c29.11,6.09,59.42,8.95,90.5,8.28l2.47,27.81c1.62,18.25,17.78,30.4,36.08,27.14l62.28-11.08c18.24-3.24,31.7-20.62,30.09-38.82l-2.46-27.73c30.02-10.1,58.62-23.31,85.44-39.18l16.13,21.76c10.46,14.12,31.01,15.95,45.89,4.11l50.64-40.31c14.83-11.81,18.41-32.8,7.99-46.9l-16.68-22.58c21.35-22.98,40.37-48.04,56.69-74.72l27.11,10.49c16.38,6.33,35.81-2.48,43.41-19.68l25.86-58.58c7.58-17.17.49-36.24-15.85-42.61l-28.51-11.11c7.6-28.84,12.28-58.55,13.76-88.74l32.65-5.51c17.92-3.02,31.15-20.09,29.55-38.12l-5.45-61.46c-1.6-18.03-17.42-30.24-35.35-27.27l-34.58,5.73c-7.45-27.94-17.79-54.36-30.67-79.01l29.45-23.09c14.75-11.57,18.3-32.42,7.94-46.59l-35.35-48.35c-10.38-14.2-30.78-16.35-45.58-4.81l-31,24.2c-19.98-18.88-42.02-35.51-65.74-49.62l16.41-36.74c7.65-17.12.5-36.32-15.96-42.9l-56.2-22.45c-16.51-6.59-36.14,1.96-43.83,19.11l-16.88,37.66c-26.93-5.68-54.92-8.63-83.65-8.53l-3.57-40.29c-1.61-18.2-17.72-30.63-35.99-27.77l-62.39,9.77c-18.34,2.87-31.9,19.99-30.28,38.24l3.58,40.4c-28.14,8.92-55.1,20.61-80.59,34.66l-23.3-31.54c-10.63-14.39-31.54-16.6-46.72-4.93l-51.83,39.85c-15.23,11.71-18.93,32.89-8.25,47.29l22.88,30.87c-21.1,21.51-40.12,45-56.7,70.07l-35.37-13.79c-16.92-6.59-37.04,2.17-44.93,19.59l-26.94,59.43c-7.91,17.45-.57,36.92,16.39,43.48l33.79,13.07c-8.53,28.63-14.19,58.19-16.67,88.3l-35.9,5.95c-18.66,3.09-32.47,20.53-30.84,38.95ZM933.67,2248.01c-12.25-138.1,90.57-268.29,228.89-290.67,137.48-22.24,258.14,70.55,270.26,207.14,12.12,136.59-88.79,266.46-226.14,290.21-138.18,23.89-260.76-68.58-273.01-206.68Z"/>
        </g>
      </g>
    </g>
  </g>
</svg>