<?xml version="1.0" encoding="UTF-8"?>
<svg xmlns="http://www.w3.org/2000/svg" viewBox="0 0 500 500">
  <defs>
    <style>
      .cls-1 {
        fill: #263238;
      }

      .cls-1, .cls-2, .cls-3, .cls-4, .cls-5, .cls-6, .cls-7, .cls-8, .cls-9, .cls-10, .cls-11, .cls-12, .cls-13 {
        stroke-width: 0px;
      }

      .cls-14 {
        opacity: .7;
      }

      .cls-2 {
        fill: #dbdbdb;
      }

      .cls-3 {
        fill: #455a64;
      }

      .cls-4 {
        fill: #ff9cbd;
      }

      .cls-15 {
        opacity: .5;
      }

      .cls-5, .cls-6 {
        fill: #ffc727;
      }

      .cls-6, .cls-16 {
        opacity: .62;
      }

      .cls-7 {
        fill: #263238;
      }

      .cls-8 {
        fill: #ebebeb;
      }

      .cls-9 {
        fill: #c95f50;
      }

      .cls-10 {
        fill: #fff;
      }

      .cls-11 {
        fill: #000;
        opacity: .1;
      }

      .cls-12 {
        fill: #c7c7c7;
      }

      .cls-13 {
        fill: #37474f;
      }
    </style>
  </defs>
  <g id="Background_Complete" data-name="Background Complete">
    <g>
      <path class="cls-8" d="M366.67,360.72l10.53,6.53,2-3.23c.59-.95,1.66-1.46,2.77-1.37.61.05,1.23.07,1.85.06,1.11-.02,2.15.56,2.67,1.54l1.79,3.34,10.92-5.86-1.79-3.34c-.53-.98-.44-2.16.2-3.08.35-.51.68-1.03.98-1.58.54-.98,1.56-1.59,2.67-1.55l3.79.12.38-12.39-3.81-.11c-1.12-.03-2.09-.72-2.56-1.73-.13-.27-.27-.55-.41-.82-.14-.27-.29-.53-.45-.79-.57-.95-.61-2.13-.02-3.08l2.01-3.25-10.53-6.53-2.01,3.23c-.59.95-1.66,1.46-2.77,1.36-.61-.05-1.23-.07-1.85-.06-1.11.02-2.15-.56-2.67-1.54l-1.79-3.34-10.92,5.86,1.79,3.34c.53.98.44,2.16-.2,3.08-.35.51-.68,1.03-.97,1.57-.53.98-1.56,1.59-2.67,1.56l-3.8-.12-.38,12.39,3.8.12c1.11.03,2.08.72,2.55,1.72.13.28.27.55.41.82.14.27.29.53.45.79.58.96.61,2.14.02,3.09l-2,3.23ZM374.5,350.23c-2.65-4.94-.79-11.09,4.15-13.74,4.94-2.65,11.1-.8,13.75,4.14,2.65,4.94.79,11.1-4.15,13.75s-11.09.79-13.74-4.16Z"/>
      <path class="cls-8" d="M410.17,322.19l4.34,7.52,2.3-1.33c.68-.39,1.51-.35,2.16.07.36.24.74.45,1.12.65.69.35,1.14,1.06,1.14,1.83v2.66h8.68v-2.66c0-.78.45-1.48,1.14-1.83.39-.2.76-.41,1.12-.65.65-.43,1.49-.46,2.16-.07l2.3,1.33,4.34-7.52-2.31-1.33c-.68-.39-1.05-1.13-1.01-1.92.01-.21.02-.43.02-.64s0-.43-.02-.64c-.04-.78.33-1.52,1-1.91l2.32-1.34-4.34-7.52-2.31,1.33c-.68.39-1.51.35-2.16-.08-.36-.24-.73-.45-1.12-.65-.69-.35-1.14-1.05-1.14-1.83v-2.66h-8.68v2.66c0,.78-.45,1.48-1.14,1.83-.39.2-.76.41-1.12.65-.65.43-1.49.47-2.16.08l-2.31-1.33-4.34,7.52,2.31,1.33c.68.39,1.05,1.13,1.01,1.91-.01.21-.02.43-.02.64s0,.43.02.64c.04.78-.33,1.53-1.01,1.92l-2.31,1.33ZM418.47,318.3c0-3.93,3.18-7.11,7.11-7.11s7.11,3.18,7.11,7.11-3.19,7.11-7.11,7.11-7.11-3.19-7.11-7.11Z"/>
      <path class="cls-8" d="M59,77.83l4.34,7.52,2.3-1.33c.68-.39,1.51-.35,2.16.07.36.24.74.45,1.12.65.69.35,1.14,1.05,1.14,1.83v2.66h8.68v-2.66c0-.78.45-1.48,1.14-1.83.39-.2.76-.41,1.12-.65.65-.43,1.49-.46,2.16-.07l2.3,1.33,4.34-7.52-2.31-1.33c-.68-.39-1.05-1.13-1.01-1.92.01-.21.02-.43.02-.64s0-.43-.02-.64c-.04-.78.33-1.52,1-1.91l2.32-1.34-4.34-7.52-2.31,1.33c-.68.39-1.51.35-2.16-.08-.36-.24-.73-.45-1.12-.65-.69-.35-1.14-1.05-1.14-1.83v-2.66h-8.68v2.66c0,.78-.45,1.48-1.14,1.83-.39.2-.76.41-1.12.65-.65.43-1.49.47-2.16.08l-2.31-1.33-4.34,7.52,2.31,1.33c.68.39,1.05,1.13,1.01,1.91-.01.21-.02.43-.02.64s0,.43.02.64c.04.78-.33,1.53-1.01,1.92l-2.31,1.33ZM67.3,73.94c0-3.93,3.18-7.11,7.11-7.11s7.11,3.18,7.11,7.11-3.19,7.11-7.11,7.11-7.11-3.19-7.11-7.11Z"/>
    </g>
    <g>
      <g>
        <path class="cls-8" d="M102.09,258.8c-2.39,16.34-16.46,28.87-33.46,28.87-18.68,0-33.83-15.14-33.83-33.83s15.15-33.82,33.83-33.82v33.82l33.46,4.96Z"/>
        <path class="cls-2" d="M109.35,246.95c0,1.69-.13,3.34-.37,4.96l-33.46-4.96v-33.82c12.55,0,23.51,6.84,29.36,17,2.85,4.96,4.47,10.71,4.47,16.82Z"/>
      </g>
      <g>
        <rect class="cls-12" x="85.8" y="272.14" width="35.97" height=".85"/>
        <path class="cls-12" d="M124.29,275.51c-1.63,0-2.95-1.32-2.95-2.95s1.32-2.95,2.95-2.95,2.95,1.32,2.95,2.95-1.32,2.95-2.95,2.95ZM124.29,270.47c-1.15,0-2.09.94-2.09,2.09s.94,2.09,2.09,2.09,2.09-.94,2.09-2.09-.94-2.09-2.09-2.09Z"/>
        <rect class="cls-12" x="133.43" y="270.68" width="27.94" height="1.26"/>
        <rect class="cls-12" x="133.43" y="273.2" width="15.82" height="1.26"/>
      </g>
    </g>
    <g>
      <rect class="cls-8" x="232.6" y="55.55" width="8.01" height="56.97"/>
      <rect class="cls-8" x="246.37" y="69.34" width="8.01" height="43.18"/>
      <rect class="cls-8" x="260.13" y="90.93" width="8.01" height="21.59"/>
      <rect class="cls-8" x="273.89" y="78.6" width="8.01" height="33.92"/>
      <rect class="cls-8" x="287.65" y="65.65" width="8.01" height="46.87"/>
      <rect class="cls-8" x="301.41" y="58.03" width="8.01" height="54.49"/>
      <g>
        <path class="cls-8" d="M227.96,48.31l.09,16.05.05,16.05.06,32.11-.2-.2c7.36-.02,14.72-.03,22.07,0l22.07.04,22.07.04,22.07.12-22.07.12-22.07.04-22.07.04c-7.36.03-14.72.02-22.07,0h-.2s0-.2,0-.2l.06-32.11.05-16.05.09-16.05Z"/>
        <path class="cls-8" d="M226.2,51.53c.59-.18,1.18-.22,1.77-.23.59,0,1.18.05,1.77.23-.59.18-1.18.22-1.77.23-.59,0-1.18-.05-1.77-.23Z"/>
        <path class="cls-8" d="M226.2,56.41c.59-.18,1.18-.22,1.77-.23.59,0,1.18.05,1.77.23-.59.18-1.18.22-1.77.23-.59,0-1.18-.05-1.77-.23Z"/>
        <path class="cls-8" d="M226.2,61.29c.59-.18,1.18-.22,1.77-.23.59,0,1.18.05,1.77.23-.59.18-1.18.22-1.77.23-.59,0-1.18-.05-1.77-.23Z"/>
        <path class="cls-8" d="M226.2,66.17c.59-.18,1.18-.22,1.77-.23.59,0,1.18.05,1.77.23-.59.18-1.18.22-1.77.23-.59,0-1.18-.05-1.77-.23Z"/>
        <path class="cls-8" d="M226.2,71.05c.59-.18,1.18-.22,1.77-.23.59,0,1.18.05,1.77.23-.59.18-1.18.22-1.77.23-.59,0-1.18-.05-1.77-.23Z"/>
        <path class="cls-8" d="M226.2,75.93c.59-.18,1.18-.22,1.77-.23.59,0,1.18.05,1.77.23-.59.18-1.18.22-1.77.23-.59,0-1.18-.05-1.77-.23Z"/>
        <path class="cls-8" d="M226.2,80.81c.59-.18,1.18-.22,1.77-.23.59,0,1.18.05,1.77.23-.59.18-1.18.22-1.77.23-.59,0-1.18-.05-1.77-.23Z"/>
        <path class="cls-8" d="M226.2,85.69c.59-.18,1.18-.22,1.77-.23.59,0,1.18.05,1.77.23-.59.18-1.18.22-1.77.23-.59,0-1.18-.05-1.77-.23Z"/>
        <path class="cls-8" d="M226.2,90.57c.59-.18,1.18-.22,1.77-.23.59,0,1.18.05,1.77.23-.59.18-1.18.22-1.77.23-.59,0-1.18-.05-1.77-.23Z"/>
        <path class="cls-8" d="M226.2,95.45c.59-.18,1.18-.22,1.77-.23.59,0,1.18.05,1.77.23-.59.18-1.18.22-1.77.23-.59,0-1.18-.05-1.77-.23Z"/>
        <path class="cls-8" d="M226.2,100.33c.59-.18,1.18-.22,1.77-.23.59,0,1.18.05,1.77.23-.59.18-1.18.22-1.77.23-.59,0-1.18-.05-1.77-.23Z"/>
        <path class="cls-8" d="M226.2,105.21c.59-.18,1.18-.22,1.77-.23.59,0,1.18.05,1.77.23-.59.18-1.18.22-1.77.23-.59,0-1.18-.05-1.77-.23Z"/>
      </g>
    </g>
    <g>
      <g>
        <path class="cls-8" d="M179.9,167.23h-109v-75.41h109v75.41ZM71.4,166.73h108v-74.41h-108v74.41Z"/>
        <path class="cls-8" d="M179.9,99.28h-109v-7.46h109v7.46ZM71.4,98.78h108v-6.46h-108v6.46Z"/>
      </g>
      <g>
        <path class="cls-12" d="M77.68,95.6c0,.97-.78,1.75-1.75,1.75s-1.75-.78-1.75-1.75.78-1.75,1.75-1.75,1.75.78,1.75,1.75Z"/>
        <path class="cls-8" d="M84.83,95.6c0,.97-.78,1.75-1.75,1.75s-1.75-.78-1.75-1.75.78-1.75,1.75-1.75,1.75.78,1.75,1.75Z"/>
        <path class="cls-5" d="M91.98,95.6c0,.97-.78,1.75-1.75,1.75s-1.75-.78-1.75-1.75.78-1.75,1.75-1.75,1.75.78,1.75,1.75Z"/>
      </g>
    </g>
    <g>
      <g>
        <path class="cls-8" d="M450.99,272.41h-109.01v-75.41h109.01v75.41ZM342.48,271.91h108.01v-74.41h-108.01v74.41Z"/>
        <path class="cls-8" d="M450.99,204.46h-109.01v-7.46h109.01v7.46ZM342.48,203.96h108.01v-6.46h-108.01v6.46Z"/>
      </g>
      <g>
        <circle class="cls-12" cx="347.01" cy="200.78" r="1.75"/>
        <path class="cls-8" d="M355.91,200.78c0,.97-.78,1.75-1.75,1.75s-1.75-.78-1.75-1.75.78-1.75,1.75-1.75,1.75.78,1.75,1.75Z"/>
        <circle class="cls-5" cx="361.31" cy="200.78" r="1.75"/>
      </g>
    </g>
  </g>
  <g id="Shadow">
    <ellipse class="cls-8" cx="250" cy="430.88" rx="213.86" ry="24.68"/>
  </g>
  <g id="Floor">
    <polygon class="cls-7" points="32.01 397.49 86.51 397.25 141 397.16 250 396.99 359 397.16 413.49 397.25 467.99 397.49 413.49 397.74 359 397.83 250 397.99 141 397.82 86.51 397.74 32.01 397.49"/>
  </g>
  <g id="Plant">
    <g>
      <g>
        <g>
          <path class="cls-5" d="M421.98,242.94s-21.7-3.04-16.63-29.24c0,0,24.25,5.44,16.63,29.24Z"/>
          <path class="cls-11" d="M421.98,242.94s-21.7-3.04-16.63-29.24c0,0,24.25,5.44,16.63,29.24Z"/>
          <path class="cls-1" d="M420.88,237.47c-.42-1.33-.92-2.63-1.48-3.9-.02-.17-.04-.33-.06-.5-.03-.36-.06-.72-.09-1.08-.06-.78-.11-1.56-.16-2.35-.09-1.56-.19-3.13-.22-4.7,0-.09-.13-.08-.13,0-.01,1.57-.04,3.14.02,4.7.03.78.08,1.57.13,2.35.01.17.02.35.04.52-1.21-2.61-2.68-5.11-4.35-7.44-.75-1.04-1.53-2.04-2.37-3.01-.87-.99-1.78-1.93-2.65-2.91-.06-.06-.15.03-.09.1,1.6,1.66,2.92,3.64,4.18,5.56.66,1,1.28,2.02,1.87,3.06-.07-.03-.14-.05-.2-.08-.26-.11-.51-.21-.77-.31-.59-.23-1.18-.45-1.77-.67-1.16-.43-2.33-.86-3.49-1.3-.07-.03-.12.09-.05.12,1.15.46,2.3.95,3.44,1.44.56.24,1.12.48,1.68.72.28.12.56.23.85.35.19.08.38.17.58.2.44.79.87,1.57,1.27,2.38,1,2.03,1.9,4.12,2.65,6.25.05.15.1.3.16.45-.54-.36-1.22-.6-1.78-.86-.75-.35-1.5-.68-2.25-1.02-1.52-.7-3.03-1.41-4.49-2.23-.07-.04-.14.08-.06.12,1.49.81,2.95,1.68,4.45,2.49.75.41,1.5.8,2.26,1.17.63.3,1.33.73,2.04.82.68,2,1.25,4.03,1.42,6.16.24,2.96.21,5.95.28,8.92,0,.05.08.05.08,0,.22-2.69.34-5.41.35-8.12.01-2.57-.5-4.96-1.28-7.4Z"/>
          <path class="cls-1" d="M417.54,222.07c-.17,1.52-.32,3.09-.22,4.62,0,.04.06.04.07,0,.09-1.53.1-3.06.28-4.59,0-.08-.12-.12-.13-.03Z"/>
          <path class="cls-1" d="M411.34,223.38c-.96-.41-1.92-.79-2.79-1.37-.07-.05-.14.07-.06.12.88.55,1.81,1.08,2.82,1.35.05.01.09-.07.04-.09Z"/>
        </g>
        <path class="cls-1" d="M422.67,284.54c-.02-2.4-.06-4.8-.09-7.19-.04-7.97-.11-15.93-.25-23.89-.11-6.32-.26-12.64-.44-18.97,0-.04-.02-.06-.05-.08,0-1.73-.02-3.45-.03-5.18,0-.04-.05-.06-.1-.06-.05,0-.1.02-.1.07-.01,1.73-.02,3.46-.03,5.19-.03.02-.05.04-.05.07-.32,11.25-.6,22.51-.67,33.76-.01,2.29-.01,4.58-.02,6.87-.08,7.34-.11,14.68-.08,22.02,0,1.17-.02,2.34-.03,3.5-.02,6.71.07,13.43.07,20.14,0,.36.4.54.83.56.49.02,1.01-.17,1.01-.59,0-7.4.05-14.81.05-22.21.02-4.67.04-9.33,0-14Z"/>
        <g>
          <path class="cls-5" d="M413.61,277.25s-10.44-7.73-20.35-2.51c-9.91,5.23-11.46,25.37-11.46,25.37,0,0,14.55,2.08,23.71-6.64,8.83-8.4,8.1-16.22,8.1-16.22Z"/>
          <path class="cls-1" d="M416.46,277.73c-1.89-.79-3.99-.99-6.05-.79-.42-.09-.86-.09-1.28-.12-.49-.04-.98-.07-1.47-.11-1.01-.08-2.03-.14-3.04-.22-2.06-.15-4.13-.28-6.18-.49-.07,0-.09.12-.01.13,2.03.26,4.06.55,6.1.76,1.05.11,2.1.21,3.15.29.25.02.5.05.76.07-.31.07-.62.14-.93.23-1.64.46-3.21,1.13-4.73,1.92-.82.15-1.64.38-2.45.57-1.29.3-2.58.64-3.86.97-2.53.66-5.04,1.41-7.56,2.14-.08.02-.04.15.04.13,2.51-.62,5.04-1.18,7.56-1.78,1.22-.29,2.45-.58,3.67-.88.32-.08.64-.15.96-.22-2.81,1.73-5.34,3.95-7.42,6.45-2.08,2.5-3.73,5.23-5.16,8.13-.04.07.07.15.11.07,1.69-2.96,3.81-5.74,6.24-8.19-.05.14-.09.28-.14.42-.19.61-.39,1.23-.58,1.84-.39,1.23-.78,2.46-1.14,3.69-.02.08.1.11.13.03.44-1.19.86-2.39,1.28-3.59.21-.59.41-1.18.62-1.76.11-.3.21-.61.31-.92.03-.09.07-.19.1-.28,1.17-1.13,2.41-2.2,3.7-3.16,1.71-1.26,3.58-2.33,5.54-3.18-.04.18-.07.36-.11.53-.1.48-.21.95-.31,1.43-.2.99-.4,1.98-.59,2.97-.39,2.02-.64,4.07-1.02,6.09-.02.08.11.12.13.03.47-2.03,1.07-4.03,1.52-6.07.23-1.02.46-2.04.67-3.06.1-.48.19-.95.29-1.43.05-.27.12-.53.15-.8.19-.08.38-.16.57-.23,2.74-1.01,5.77-1.75,8.69-1.19,2.79.54,5.19,2.41,6.28,5.03.09.23.45.09.4-.15-.57-2.51-2.66-4.37-4.96-5.33Z"/>
          <path class="cls-1" d="M400.47,286.33c-.3,1.32-.59,2.65-.88,3.97-.28,1.26-.62,2.57-.73,3.86,0,.05.07.05.08,0,.43-1.24.63-2.6.89-3.89.26-1.31.51-2.61.77-3.92.02-.08-.11-.12-.13-.03Z"/>
          <path class="cls-1" d="M390.38,289.69c-1.33.67-2.62,1.44-4.01,1.99-.09.04-.03.16.05.12,1.34-.67,2.72-1.26,3.98-2.06.03-.02,0-.07-.03-.05Z"/>
        </g>
        <g>
          <path class="cls-5" d="M415.96,263.05s-12.76.81-18.69-7.6c-5.94-8.41-4.6-20.43-4.6-20.43,0,0,13.4,1.63,18.72,7.67,5.32,6.04,4.57,20.36,4.57,20.36Z"/>
          <path class="cls-1" d="M421.94,275.64c-.44-1.37-.99-2.71-1.51-4.05-.5-1.29-1.03-2.56-1.59-3.82-1.15-2.57-2.41-5.08-3.82-7.52-.9-1.55-1.86-3.05-2.86-4.54-.02-.23-.07-.45-.1-.68-.06-.39-.12-.79-.18-1.18-.13-.81-.27-1.61-.4-2.42-.29-1.76-.66-3.51-.94-5.28-.01-.08-.14-.08-.13,0,.26,1.74.43,3.49.68,5.23.12.86.23,1.71.36,2.57.05.31.1.62.14.93-1.95-2.84-4.05-5.57-6.31-8.19-.31-.35-.62-.7-.93-1.04-.03-.1-.08-.19-.12-.29-.09-.24-.19-.49-.28-.73-.19-.51-.37-1.01-.55-1.52-.36-1-.68-2.01-.95-3.03-.02-.08-.15-.04-.13.04.26,1.05.53,2.09.84,3.13.15.5.31.99.49,1.48.03.08.06.16.09.25-1.63-1.78-3.33-3.49-5.05-5.18-.06-.06-.15.04-.09.1,3.33,3.41,6.28,7.18,9.04,11.07-.31-.1-.63-.18-.94-.24-.98-.19-1.97-.33-2.97-.46-2.08-.26-4.15-.53-6.22-.85-.08-.01-.12.11-.03.13,1.98.39,3.94.84,5.9,1.29.93.21,1.86.39,2.79.58.78.15,1.5.39,2.24.64.21.3.42.59.62.88.94,1.36,1.83,2.75,2.71,4.15-.43-.09-.87-.17-1.3-.25-.98-.19-1.97-.37-2.96-.53-1.95-.32-3.89-.66-5.82-1.1-.08-.02-.12.11-.03.13,1.95.46,3.88.99,5.82,1.51.93.25,1.88.48,2.82.69.47.1.94.21,1.42.31.2.04.39.1.57.1,1.86,3.02,3.61,6.12,5.23,9.27.71,1.39,1.4,2.79,2.06,4.2.68,1.45,1.27,2.93,1.9,4.4.13.29.59.17.49-.15Z"/>
          <path class="cls-1" d="M408.89,246.31c-.24-1.22-.5-2.43-.77-3.64-.02-.08-.14-.04-.13.04.24,1.2.47,2.39.69,3.59.22,1.19.39,2.41.72,3.57,0,.02.04.02.04,0-.06-1.19-.32-2.39-.56-3.56Z"/>
          <path class="cls-1" d="M401.44,245.96c-.59-.29-1.22-.53-1.83-.77-.32-.13-.65-.25-.97-.38-.16-.07-.33-.13-.49-.2-.17-.07-.39-.12-.54-.24-.1-.07-.16.1-.06.11.19.03.37.15.55.22.16.07.32.14.48.22.31.14.62.28.93.42.62.27,1.24.55,1.88.75.08.02.12-.09.05-.13Z"/>
        </g>
        <g>
          <path class="cls-5" d="M429.02,253.02s7.72-14.42,19.47-16.66c11.75-2.23,18.94,9.85,18.94,9.85,0,0-8.57,10.94-19.35,12.85s-19.06-6.05-19.06-6.05Z"/>
          <path class="cls-1" d="M456.36,242.82c-3.04-.42-6.16-.37-9.21.11.18-.1.35-.19.52-.28.87-.44,1.74-.89,2.61-1.34,1.8-.94,3.63-1.94,5.52-2.69.09-.04.03-.16-.05-.12-1.84.86-3.74,1.57-5.59,2.42-.92.42-1.83.87-2.73,1.34-.58.31-1.22.6-1.79.96-2.58.53-5.1,1.35-7.47,2.48.49-.53.98-1.06,1.47-1.6,1.09-1.2,2.17-2.46,3.37-3.55.06-.06-.03-.15-.1-.09-1.23,1.12-2.53,2.15-3.72,3.31-.58.56-1.13,1.15-1.67,1.75-.27.3-.54.61-.79.93-5.11,2.78-9.45,6.97-12.32,12.03-1.63,2.88-2.77,5.99-3.43,9.23-.02.08.1.13.13.04,1.61-5.45,4.66-10.56,8.64-14.61,4.32-4.4,9.77-7.57,15.74-9.11,3.55-.91,7.21-1.23,10.86-.99.15,0,.16-.21.02-.23Z"/>
          <path class="cls-11" d="M467.42,246.21s-8.57,10.94-19.35,12.85c-8.22,1.46-14.99-2.83-17.73-4.94l-.59-.97s5.56-4.69,16.08-7.39c10.52-2.7,21.6.46,21.6.46Z"/>
          <path class="cls-1" d="M449.54,237.68c-.89.54-1.78,1.09-2.61,1.72-.82.63-1.58,1.31-2.27,2.07-.06.07.03.15.1.1.78-.68,1.56-1.36,2.37-2,.79-.63,1.6-1.25,2.47-1.78.07-.04,0-.16-.07-.11Z"/>
          <path class="cls-1" d="M455.98,240.12c-.44.18-.88.34-1.31.52-.44.18-.87.36-1.31.54-.09.04-.05.19.05.15.44-.18.87-.35,1.31-.53.44-.18.87-.38,1.3-.56.08-.03.04-.16-.04-.13Z"/>
        </g>
        <g>
          <path class="cls-5" d="M427.48,271.17s2.06,14.31,12.82,19.31c10.76,5,23.88,0,23.88,0,0,0-5.16-30.96-36.7-19.31Z"/>
          <path class="cls-1" d="M456.76,281.17c-.99-.11-1.98-.28-2.96-.46-.48-.09-.96-.18-1.45-.27-.24-.05-.5-.11-.76-.15-.29-.27-.57-.54-.87-.81-2.04-1.79-4.25-3.39-6.58-4.77-1.27-.75-2.59-1.43-3.94-2.03.07,0,.13,0,.2,0,1.18.05,2.36.1,3.54.15,2.36.11,4.72.16,7.08.31.09,0,.08-.13,0-.13-2.37-.16-4.73-.42-7.09-.62-1.15-.1-2.29-.2-3.44-.31-.59-.05-1.18-.1-1.77-.15-.15-.01-.3-.03-.45-.05-.61-.23-1.23-.45-1.86-.64-2.94-.91-6.1-1.27-9.11-.5-2.71.69-5.41,2.47-6.11,5.32-.02.1.13.17.17.07,1.01-2.38,3.66-3.58,6.04-4.08,1.61-.33,3.25-.32,4.87-.1.07.73.34,1.49.54,2.16.3,1.01.59,2.01.9,3.02.61,2.01,1.28,4,1.88,6.01.02.08.15.04.13-.04-.5-2.01-.92-4.03-1.41-6.05-.24-.99-.49-1.97-.73-2.96-.16-.63-.29-1.38-.54-2.03.95.17,1.88.39,2.79.66,1.65.49,3.28,1.09,4.88,1.79.16,1.02.39,2.03.62,3.04.29,1.26.62,2.51,1.02,3.75.03.08.14.04.12-.04-.02-.08-.03-.16-.05-.23,0,0,0,0,0,0-.24-1.17-.5-2.34-.75-3.51-.2-.94-.38-1.89-.59-2.83,1.34.6,2.65,1.26,3.92,1.99.03.29.1.59.14.86.08.49.17.98.26,1.47.2,1.1.42,2.2.69,3.29.51,2.1,1.08,4.2,1.85,6.22-.02.02-.02.06,0,.08.02.02.04.05.06.07.05.05.12,0,.11-.07-.5-2.12-1.07-4.22-1.53-6.35-.23-1.06-.47-2.12-.68-3.19-.11-.53-.2-1.07-.31-1.6-.03-.15-.05-.31-.07-.48,1.45.86,2.86,1.79,4.19,2.79,2.3,1.73,4.49,3.71,6.41,5.85.08.09.23-.04.16-.13-.82-1.08-1.64-2.13-2.56-3.13-.54-.58-1.1-1.14-1.68-1.69.06,0,.12.02.18.03.5.09,1.01.16,1.52.23.99.13,1.99.23,2.99.34.08,0,.12-.12.03-.13Z"/>
          <path class="cls-1" d="M449.2,286.02h0s0,0,0,0c-.02-.12-.04-.25-.06-.37-.03-.16-.11-.31-.13-.47,0,0,0,0,0,0-.22-.96-.41-1.92-.58-2.89-.01-.07-.12-.05-.12.02.05,1.28.36,2.55.82,3.74.01.04.08.03.08-.01,0,0,0,0,0-.01Z"/>
          <path class="cls-1" d="M440.19,285.79s-.03-.06-.06-.06c-.3-1.27-.59-2.53-.85-3.81-.14-.67-.28-1.34-.41-2.01-.07-.36-.14-.72-.2-1.09-.06-.31-.08-.65-.23-.93-.03-.05-.11-.04-.12.02-.09.6.16,1.33.27,1.92.13.7.27,1.4.42,2.09.31,1.41.67,2.82,1.06,4.21.02.08.15.06.14-.02,0-.1-.01-.21-.02-.31Z"/>
          <path class="cls-1" d="M455.78,277.05c-1.96-.27-3.93-.55-5.9-.79-.08-.01-.12.12-.03.13,1.96.29,3.93.53,5.9.79.08.01.12-.12.03-.13Z"/>
        </g>
        <g>
          <path class="cls-5" d="M421.96,237.61s-6.58-28.88,24.45-40.57c0,0,8.6,38.02-24.45,40.57Z"/>
          <path class="cls-1" d="M428.66,221.23c.12-.07.23-.15.33-.2.59-.32,1.17-.65,1.75-.98l3.6-2.01c2.37-1.33,4.71-2.7,7.09-4,.08-.04,0-.15-.07-.11-2.39,1.3-4.82,2.52-7.22,3.79l-3.56,1.88c-.48.26-.97.51-1.45.77,1.04-1.96,2.14-3.89,3.36-5.74,1.62-2.47,3.4-4.83,5.25-7.14.08-.11-.05-.24-.15-.15-2.74,2.62-5.11,5.61-7.18,8.8,0-.1,0-.2,0-.3.04-.72.05-1.44.06-2.16.02-1.41-.05-2.82,0-4.23,0-.09-.13-.08-.13,0-.06,1.39-.22,2.77-.3,4.16-.04.69-.07,1.38-.09,2.08-.01.37-.05.8-.03,1.21-.64,1.02-1.25,2.05-1.83,3.09-1.03,1.86-1.96,3.81-2.77,5.82-.03-.72-.07-1.44-.12-2.16-.09-1.58-.29-3.16-.35-4.74,0-.09-.13-.08-.13,0,.03,1.58-.04,3.16,0,4.75.02.79.05,1.58.1,2.37.02.29.03.59.05.88-.99,2.59-1.78,5.26-2.34,7.94-.6,2.89-.85,5.79-1.16,8.72,0,.02.03.02.03,0,.27-2.61.93-5.25,1.65-7.78.38-1.36.79-2.72,1.23-4.06,1.29-.61,2.53-1.37,3.77-2.06,1.29-.72,2.6-1.42,3.89-2.13,2.59-1.42,5.17-2.86,7.84-4.12.08-.04,0-.15-.07-.11-2.71,1.23-5.43,2.39-8.09,3.73-1.32.66-2.62,1.37-3.91,2.1-1.08.61-2.19,1.21-3.21,1.91.3-.9.61-1.79.96-2.68.94-2.43,2.01-4.81,3.19-7.13Z"/>
          <path class="cls-1" d="M426.05,214.63c0-.08-.14-.08-.13,0,.11,1.65.17,3.29.34,4.94,0,.09.15.09.15,0-.06-1.65-.23-3.29-.36-4.94Z"/>
          <path class="cls-1" d="M440.92,220.14c-1.94.78-3.9,1.52-5.83,2.33-.05.02-.03.11.03.09,1.96-.73,3.9-1.53,5.85-2.3.08-.03.04-.16-.04-.13Z"/>
          <path class="cls-1" d="M443.87,206.82c-1.9.88-3.74,1.85-5.52,2.96-.09.06,0,.19.09.14,1.8-1.05,3.63-2.06,5.5-2.99.08-.04,0-.15-.07-.11Z"/>
        </g>
      </g>
      <g>
        <rect class="cls-13" x="398.65" y="300.07" width="44.75" height="47.17"/>
        <g>
          <rect class="cls-1" x="395.57" y="316.76" width="2.29" height="80.8"/>
          <rect class="cls-1" x="443.95" y="316.76" width="2.29" height="80.8"/>
          <rect class="cls-1" x="420.98" y="316.76" width="2.29" height="80.8"/>
          <rect class="cls-1" x="396.72" y="344.22" width="48.38" height="6.53"/>
        </g>
      </g>
    </g>
  </g>
  <g id="Window_4" data-name="Window 4">
    <g>
      <g>
        <g class="cls-15">
          <rect class="cls-8" x="274.02" y="230.1" width="158.73" height="113.33"/>
          <path class="cls-8" d="M432.75,343.43l-158.73.27h-.27s0-.27,0-.27l-.11-113.33v-.37s.37,0,.37,0l158.73.1h.27s0,.27,0,.27l-.27,113.33ZM432.75,343.43l-.27-113.33.27.27-158.73.1.37-.37-.11,113.33-.27-.27,158.73.27Z"/>
        </g>
        <g>
          <rect class="cls-3" x="274.02" y="222.66" width="158.73" height="7.44"/>
          <g>
            <path class="cls-12" d="M279.94,226.38c0,1.02-.83,1.85-1.85,1.85s-1.85-.83-1.85-1.85.83-1.85,1.85-1.85,1.85.83,1.85,1.85Z"/>
            <path class="cls-10" d="M287.48,226.38c0,1.02-.83,1.85-1.85,1.85s-1.85-.83-1.85-1.85.83-1.85,1.85-1.85,1.85.83,1.85,1.85Z"/>
            <path class="cls-5" d="M295.02,226.38c0,1.02-.83,1.85-1.85,1.85s-1.85-.83-1.85-1.85.83-1.85,1.85-1.85,1.85.83,1.85,1.85Z"/>
          </g>
        </g>
      </g>
      <g>
        <g>
          <g>
            <rect class="cls-10" x="391.57" y="250.7" width="11.46" height="74.3" transform="translate(794.6 575.69) rotate(180)"/>
            <rect class="cls-5" x="391.57" y="268.55" width="11.46" height="56.45" transform="translate(794.6 593.55) rotate(180)"/>
          </g>
          <g>
            <rect class="cls-10" x="374.34" y="250.72" width="11.46" height="74.27" transform="translate(760.13 575.72) rotate(180)"/>
            <rect class="cls-3" x="374.34" y="276.07" width="11.46" height="48.92" transform="translate(760.13 601.07) rotate(180)"/>
          </g>
          <g>
            <rect class="cls-10" x="357.1" y="250.7" width="11.46" height="74.3" transform="translate(725.66 575.69) rotate(180)"/>
            <rect class="cls-5" x="357.1" y="302.39" width="11.46" height="22.6" transform="translate(725.66 627.39) rotate(180)"/>
          </g>
          <g>
            <rect class="cls-10" x="339.87" y="250.72" width="11.46" height="74.27" transform="translate(691.19 575.72) rotate(180)"/>
            <rect class="cls-3" x="339.87" y="262.98" width="11.46" height="62.02" transform="translate(691.19 587.97) rotate(180)"/>
          </g>
          <g>
            <rect class="cls-10" x="322.63" y="250.72" width="11.46" height="74.27" transform="translate(656.73 575.72) rotate(180)"/>
            <rect class="cls-5" x="322.63" y="258.06" width="11.46" height="66.93" transform="translate(656.73 583.06) rotate(180)"/>
          </g>
          <g>
            <rect class="cls-10" x="305.4" y="250.72" width="11.46" height="74.27" transform="translate(622.26 575.72) rotate(180)"/>
            <rect class="cls-3" x="305.4" y="282.59" width="11.46" height="42.41" transform="translate(622.26 607.59) rotate(180)"/>
          </g>
        </g>
        <g>
          <polygon class="cls-12" points="297.77 250.7 297.93 269.27 298.05 287.85 298.17 325 297.77 324.59 325.99 324.58 354.21 324.62 382.44 324.76 410.66 325 382.44 325.24 354.21 325.38 325.99 325.42 297.77 325.4 297.36 325.4 297.36 325 297.48 287.85 297.6 269.27 297.77 250.7"/>
          <path class="cls-12" d="M296.11,250.7c.57-.17,1.14-.21,1.71-.22.57,0,1.14.05,1.71.22-.57.17-1.14.21-1.71.22-.57,0-1.14-.05-1.71-.22Z"/>
          <path class="cls-12" d="M296.11,258.06c.57-.17,1.14-.21,1.71-.22.57,0,1.14.05,1.71.22-.57.17-1.14.21-1.71.22-.57,0-1.14-.05-1.71-.22Z"/>
          <path class="cls-12" d="M296.11,265.43c.57-.17,1.14-.21,1.71-.22.57,0,1.14.05,1.71.22-.57.17-1.14.21-1.71.22-.57,0-1.14-.05-1.71-.22Z"/>
          <path class="cls-12" d="M296.11,272.8c.57-.17,1.14-.21,1.71-.22.57,0,1.14.05,1.71.22-.57.17-1.14.21-1.71.22-.57,0-1.14-.05-1.71-.22Z"/>
          <path class="cls-12" d="M296.11,280.17c.57-.17,1.14-.21,1.71-.22.57,0,1.14.05,1.71.22-.57.17-1.14.21-1.71.22-.57,0-1.14-.05-1.71-.22Z"/>
          <path class="cls-12" d="M296.11,287.53c.57-.17,1.14-.21,1.71-.22.57,0,1.14.05,1.71.22-.57.17-1.14.21-1.71.22-.57,0-1.14-.05-1.71-.22Z"/>
          <path class="cls-12" d="M296.11,294.9c.57-.17,1.14-.21,1.71-.22.57,0,1.14.05,1.71.22-.57.17-1.14.21-1.71.22-.57,0-1.14-.05-1.71-.22Z"/>
          <path class="cls-12" d="M296.11,302.27c.57-.17,1.14-.21,1.71-.22.57,0,1.14.05,1.71.22-.57.17-1.14.21-1.71.22-.57,0-1.14-.05-1.71-.22Z"/>
          <path class="cls-12" d="M296.11,309.64c.57-.17,1.14-.21,1.71-.22.57,0,1.14.05,1.71.22-.57.17-1.14.21-1.71.22-.57,0-1.14-.05-1.71-.22Z"/>
          <path class="cls-12" d="M296.11,317c.57-.17,1.14-.21,1.71-.22.57,0,1.14.05,1.71.22-.57.17-1.14.21-1.71.22-.57,0-1.14-.05-1.71-.22Z"/>
        </g>
      </g>
    </g>
  </g>
  <g id="Window_1" data-name="Window 1">
    <g>
      <g>
        <g class="cls-15">
          <rect class="cls-8" x="90.28" y="117.08" width="146.61" height="95.44"/>
          <path class="cls-8" d="M236.89,212.52l-146.61.27h-.27s0-.27,0-.27l-.11-95.44v-.37s.37,0,.37,0l146.61.1h.27s0,.27,0,.27l-.09,47.8-.18,47.64ZM236.89,212.52l-.18-47.8-.09-47.64.27.27-146.61.1.37-.37-.11,95.44-.27-.27,146.61.27Z"/>
        </g>
        <g>
          <rect class="cls-3" x="90.28" y="110.21" width="146.61" height="6.88"/>
          <g>
            <path class="cls-12" d="M95.75,113.65c0,.94-.76,1.71-1.71,1.71s-1.71-.76-1.71-1.71.76-1.71,1.71-1.71,1.71.76,1.71,1.71Z"/>
            <path class="cls-10" d="M102.71,113.65c0,.94-.76,1.71-1.71,1.71s-1.71-.76-1.71-1.71.76-1.71,1.71-1.71,1.71.76,1.71,1.71Z"/>
            <path class="cls-5" d="M109.67,113.65c0,.94-.76,1.71-1.71,1.71s-1.71-.76-1.71-1.71.76-1.71,1.71-1.71,1.71.76,1.71,1.71Z"/>
          </g>
        </g>
      </g>
      <g>
        <g>
          <rect class="cls-10" x="117.29" y="130.96" width="103.24" height="10.06"/>
          <rect class="cls-5" x="120.65" y="133.81" width="51.34" height="4.36"/>
        </g>
        <g>
          <rect class="cls-10" x="117.29" y="145.73" width="103.24" height="10.06"/>
          <rect class="cls-3" x="120.65" y="148.58" width="80.11" height="4.36"/>
        </g>
        <g>
          <rect class="cls-10" x="117.29" y="160.5" width="103.24" height="10.06"/>
          <rect class="cls-5" x="120.65" y="163.35" width="20.08" height="4.36"/>
        </g>
        <g>
          <rect class="cls-10" x="117.29" y="175.27" width="103.24" height="10.06"/>
          <rect class="cls-3" x="120.65" y="178.12" width="63.64" height="4.36"/>
        </g>
        <g>
          <rect class="cls-10" x="117.29" y="190.04" width="103.24" height="10.06"/>
          <rect class="cls-5" x="120.65" y="192.9" width="73.08" height="4.36"/>
        </g>
        <g>
          <path class="cls-1" d="M104.32,136.31c0,.65-.53,1.17-1.18,1.17-.61,0-1.11-.46-1.17-1.05t0,0c0-.09,0-.18,0-.28,0-.32.05-.67.17-.99.12-.32.32-.62.62-.83.2-.14.45-.22.73-.23.15,0,.27.11.28.26,0,.14-.11.27-.26.28-.18,0-.33.06-.45.13-.12.08-.22.19-.3.34-.02.04-.04.08-.06.13.14-.06.3-.1.46-.1.65,0,1.18.52,1.18,1.17ZM103.78,136.31c0-.35-.28-.64-.64-.64s-.63.29-.63.64.28.63.63.63.64-.28.64-.63Z"/>
          <path class="cls-1" d="M105.07,135.78c0-.44.12-.85.33-1.16.2-.31.52-.54.9-.54s.69.23.89.54c.21.31.32.71.32,1.16s-.12.85-.32,1.16c-.2.3-.52.54-.89.54s-.7-.23-.9-.54c-.21-.31-.32-.72-.33-1.16ZM106.99,135.78c0-.35-.1-.65-.23-.86-.14-.2-.3-.3-.45-.3-.15,0-.31.09-.46.3-.14.21-.23.51-.23.86s.1.65.23.86c.14.21.31.3.46.3s.31-.09.45-.3c.13-.2.23-.51.23-.86Z"/>
          <path class="cls-1" d="M108.46,134.93h0c0-.48.32-.87.8-.87s.79.39.79.86h0c0,.48-.32.87-.8.87s-.79-.39-.79-.86ZM109.63,134.93h0c0-.28-.15-.5-.37-.5s-.36.22-.36.48h0c0,.28.15.5.37.5s.36-.22.36-.48ZM109.02,137.19l2.22-3.03c.03-.06.1-.09.16-.09.11,0,.19.08.19.19,0,.05-.02.09-.04.13l-2.22,3.03c-.04.06-.1.09-.17.09-.11,0-.19-.08-.19-.19,0-.05.02-.09.04-.13ZM110.51,136.66h0c0-.48.32-.88.8-.88s.79.39.79.86h0c0,.48-.32.88-.8.88s-.79-.39-.79-.86ZM111.67,136.66h0c0-.28-.15-.5-.37-.5s-.36.22-.36.48h0c0,.29.15.5.37.5s.36-.22.36-.48Z"/>
        </g>
        <g>
          <path class="cls-1" d="M101.98,150.03c0-.65.53-1.17,1.18-1.17.61,0,1.11.46,1.16,1.05t0,0c0,.09,0,.18,0,.28,0,.32-.05.67-.17.99-.12.32-.32.62-.62.83-.2.13-.45.22-.72.23-.15,0-.27-.11-.28-.26,0-.15.11-.27.26-.28.18,0,.33-.06.45-.14.12-.08.22-.19.31-.34.02-.04.04-.08.06-.13-.14.06-.3.1-.46.1-.65,0-1.18-.52-1.18-1.17ZM102.51,150.03c0,.35.28.64.64.64s.63-.29.63-.64-.28-.63-.63-.63-.64.28-.64.63Z"/>
          <path class="cls-1" d="M105.07,150.55c0-.44.12-.85.33-1.16.2-.31.52-.54.9-.54s.69.23.89.54c.21.31.32.71.32,1.16s-.12.85-.32,1.16c-.2.31-.52.54-.89.54s-.7-.23-.9-.54c-.21-.31-.32-.72-.33-1.16ZM106.99,150.55c0-.35-.1-.65-.23-.86-.14-.2-.3-.3-.45-.29-.15,0-.31.09-.46.29-.14.21-.23.51-.23.86s.1.65.23.86c.14.21.31.3.46.3s.31-.09.45-.3c.13-.2.23-.51.23-.86Z"/>
          <path class="cls-1" d="M108.46,149.7h0c0-.48.32-.88.8-.88s.79.39.79.86h0c0,.48-.32.87-.8.87s-.79-.39-.79-.86ZM109.63,149.7h0c0-.28-.15-.5-.37-.5s-.36.22-.36.48h0c0,.28.15.5.37.5s.36-.22.36-.48ZM109.02,151.96l2.22-3.03c.03-.06.1-.09.16-.09.11,0,.19.08.19.19,0,.05-.02.09-.04.13l-2.22,3.03c-.04.06-.1.09-.17.09-.11,0-.19-.08-.19-.19,0-.05.02-.09.04-.13ZM110.51,151.43h0c0-.48.32-.88.8-.88s.79.39.79.86h0c0,.48-.32.88-.8.88s-.79-.39-.79-.86ZM111.67,151.43h0c0-.28-.15-.5-.37-.5s-.36.22-.36.48h0c0,.29.15.5.37.5s.36-.22.36-.48Z"/>
        </g>
        <g>
          <path class="cls-1" d="M103.8,164.96c.24.23.35.54.35.85s-.12.61-.35.85c-.23.23-.54.35-.85.35s-.61-.12-.85-.35c-.11-.11-.11-.28,0-.39.11-.11.28-.11.39,0,.13.13.29.19.46.19s.33-.06.46-.19c.13-.13.19-.29.19-.46s-.06-.33-.19-.46c-.13-.13-.29-.19-.46-.19-.08,0-.15-.03-.2-.09t0,0c-.11-.11-.11-.28,0-.39l.49-.5h-.78c-.15,0-.27-.12-.27-.28s.12-.27.27-.27h1.43c.15,0,.28.12.28.27,0,.05-.01.09-.03.13-.01.02-.03.05-.05.07l-.61.63c.13.06.24.14.34.24Z"/>
          <path class="cls-1" d="M104.92,165.32c0-.44.12-.85.33-1.16.2-.31.52-.54.9-.54s.69.23.89.54c.21.31.32.71.32,1.16s-.12.85-.32,1.16c-.2.31-.52.54-.89.54s-.7-.23-.9-.54c-.21-.31-.32-.72-.33-1.16ZM106.83,165.32c0-.35-.1-.65-.23-.86-.14-.2-.3-.3-.45-.29-.15,0-.31.09-.46.29-.13.21-.23.51-.23.86s.1.65.23.86c.15.21.31.3.46.3s.31-.09.45-.3c.14-.2.23-.51.23-.86Z"/>
          <path class="cls-1" d="M108.31,164.47h0c0-.48.32-.88.8-.88s.79.39.79.86h0c0,.48-.32.87-.8.87s-.79-.39-.79-.86ZM109.47,164.47h0c0-.28-.15-.5-.37-.5s-.36.22-.36.48h0c0,.28.15.5.37.5s.36-.22.36-.48ZM108.86,166.73l2.22-3.03c.03-.06.1-.09.16-.09.11,0,.19.08.19.19,0,.05-.02.09-.04.13l-2.22,3.03c-.04.06-.1.09-.17.09-.11,0-.19-.08-.19-.19,0-.05.02-.09.04-.13ZM110.35,166.2h0c0-.48.32-.88.8-.88s.79.39.79.86h0c0,.48-.32.88-.8.88s-.79-.39-.79-.86ZM111.52,166.2h0c0-.28-.15-.5-.37-.5s-.36.22-.36.48h0c0,.29.15.5.37.5s.36-.22.36-.48Z"/>
        </g>
        <g>
          <path class="cls-1" d="M104.14,178.77l-1.21,2.86c-.04.1-.13.16-.25.16-.03,0-.07,0-.1-.02-.14-.06-.2-.22-.15-.35l1.04-2.48h-1.25c-.15,0-.27-.13-.27-.27s.12-.27.27-.27h1.66s.03,0,.05,0c.03,0,.07.02.1.04,0,0,0,0,.01.02,0,0,.01,0,.02.02,0,0,.01.01.02.02,0,0,0,.01.02.02,0,0,0,.02,0,.02,0,0,0,.01.02.02,0,0,0,.02,0,.02,0,0,0,.01,0,.02,0,.03,0,.07,0,.11,0,.02,0,.03-.01.05Z"/>
          <path class="cls-1" d="M104.71,180.1c0-.44.12-.85.33-1.16.2-.31.52-.54.9-.54s.69.23.89.54c.21.31.32.71.32,1.16s-.12.85-.32,1.16c-.2.31-.52.54-.89.54s-.7-.23-.9-.54c-.21-.31-.32-.72-.33-1.16ZM106.62,180.1c0-.35-.1-.65-.23-.86-.14-.2-.3-.3-.45-.29-.15,0-.31.09-.46.29-.13.21-.23.51-.23.86s.1.65.23.86c.15.21.31.3.46.3s.31-.09.45-.3c.13-.2.23-.51.23-.86Z"/>
          <path class="cls-1" d="M108.1,179.24h0c0-.48.32-.88.8-.88s.79.39.79.86h0c0,.48-.32.87-.8.87s-.79-.39-.79-.86ZM109.26,179.24h0c0-.28-.15-.5-.37-.5s-.36.22-.36.48h0c0,.28.15.5.37.5s.36-.22.36-.48ZM108.65,181.5l2.22-3.03c.03-.06.1-.09.16-.09.11,0,.19.08.19.19,0,.05-.02.09-.04.13l-2.22,3.03c-.04.06-.1.09-.17.09-.11,0-.19-.08-.19-.19,0-.05.02-.09.04-.13ZM110.14,180.97h0c0-.48.32-.88.8-.88s.79.39.79.86h0c0,.48-.32.88-.8.88s-.79-.39-.79-.86ZM111.31,180.97h0c0-.28-.15-.5-.37-.5s-.36.22-.36.48h0c0,.29.15.5.37.5s.36-.22.36-.48Z"/>
        </g>
        <g>
          <path class="cls-1" d="M104.23,195.41c0,.63-.52,1.15-1.15,1.15s-1.16-.52-1.16-1.15c0-.4.2-.75.52-.96-.1-.13-.16-.3-.16-.48,0-.43.36-.79.8-.79s.79.36.79.79c0,.18-.06.35-.16.48.31.21.52.56.52.96ZM103.71,195.41c0-.34-.28-.63-.62-.63s-.63.28-.63.63c0,.34.29.62.63.62s.62-.28.62-.62ZM102.81,193.97c0,.15.12.28.28.28.14,0,.27-.13.27-.28s-.12-.27-.27-.27c-.16,0-.28.12-.28.27Z"/>
          <path class="cls-1" d="M105.02,194.87c0-.44.12-.85.33-1.16.2-.31.52-.54.9-.54s.69.23.89.54c.21.31.32.71.32,1.16s-.12.85-.32,1.16c-.2.31-.52.54-.89.54s-.7-.23-.9-.54c-.21-.31-.32-.72-.33-1.16ZM106.93,194.87c0-.35-.1-.65-.23-.86-.14-.2-.3-.3-.45-.29-.15,0-.31.09-.46.29-.13.21-.23.51-.23.86s.1.65.23.86c.15.21.31.3.46.3s.31-.09.45-.3c.13-.2.23-.51.23-.86Z"/>
          <path class="cls-1" d="M108.4,194.01h0c0-.48.32-.88.8-.88s.79.39.79.86h0c0,.48-.32.87-.8.87s-.79-.39-.79-.86ZM109.57,194.01h0c0-.28-.15-.5-.37-.5s-.36.22-.36.48h0c0,.28.15.5.37.5s.36-.22.36-.48ZM108.96,196.27l2.22-3.03c.03-.06.1-.09.16-.09.11,0,.19.08.19.19,0,.05-.02.09-.04.13l-2.22,3.03c-.04.06-.1.09-.17.09-.11,0-.19-.08-.19-.19,0-.05.02-.09.04-.13ZM110.45,195.74h0c0-.48.32-.88.8-.88s.79.39.79.86h0c0,.48-.32.88-.8.88s-.79-.39-.79-.86ZM111.61,195.74h0c0-.28-.15-.5-.37-.5s-.36.22-.36.48h0c0,.29.15.5.37.5s.36-.22.36-.48Z"/>
        </g>
      </g>
    </g>
  </g>
  <g id="Character">
    <g>
      <g>
        <path class="cls-1" d="M266.72,90.34c-2.58-4.83-8.41-7.25-14.6-7.53-6.18-.28-13.92.87-16.88,10.11-2.4,7.5-1.75,15.54-3.88,24.04-2.13,8.5-17.28,26.83-3.61,40.82,12.29,12.57,43.76,11.27,49.27-7.22,4.36-14.66-10.71-32.79-11.21-39.13-.5-6.34,3.74-15.8.91-21.09Z"/>
        <path class="cls-1" d="M267.31,99.35c-.93,4.27-1.35,8.72-.48,13.17.21,1.11.62,2.23,1.14,3.25.51,1.03,1.07,2.02,1.62,3,1.14,1.96,2.26,3.9,3.29,5.88,2.06,3.95,3.69,8.08,4.49,12.37.8,4.28.71,8.69-.2,12.97.72-2.07,1.15-4.24,1.37-6.44.18-2.2.11-4.43-.18-6.64-.58-4.44-2.23-8.73-4.3-12.75-1.05-2.01-2.22-3.97-3.37-5.91-1.16-1.95-2.35-3.82-2.85-5.91-.55-2.09-.74-4.27-.78-6.45-.08-2.18.05-4.36.25-6.54Z"/>
        <path class="cls-1" d="M234.08,99.44c-.95,4.36-1.73,8.75-2.91,13.02-.61,2.13-1.26,4.24-2.14,6.26-.84,2-2.01,3.93-3.08,5.91-1.06,1.98-2.08,4-2.97,6.08-.86,2.09-1.59,4.24-2.05,6.45-.42,2.22-.56,4.51-.31,6.77.36,2.26,1.18,4.45,2.44,6.39-.99-2.07-1.66-4.22-1.8-6.43-.11-2.2.13-4.39.66-6.52,1.12-4.25,3.07-8.26,5.21-12.18,1.03-1.98,2.2-3.91,3.06-6.05.83-2.11,1.48-4.27,1.96-6.46.99-4.38,1.51-8.81,1.92-13.25Z"/>
      </g>
      <g>
        <g>
          <g>
            <path class="cls-9" d="M316.32,440.65c-2.31.75-68.3-.11-70.79-1.74-.96-.6-1.39-10.22-1.59-21.86,0-.12,0-.24,0-.36-.04-2.4-.08-4.87-.08-7.37,0-.34,0-.69-.01-1.03-.09-16.8.17-34.23.17-34.23l44.14.44-1.33,33.91-.05,1.34-.27,7.02-.03.72s25.11,11.62,27.66,13.7c2.53,2.07,4.48,8.73,2.17,9.46Z"/>
            <path class="cls-5" d="M296.5,421.99c-.17-.05-.26-.1-.27-.15,0,0,.1.05.27.15Z"/>
            <path class="cls-1" d="M316.32,440.65c-2.31.75-68.29-.1-70.79-1.74-.85-.53-1.29-8.2-1.51-18.07,12.09,2.52,58.95,12,60.23,7.99.5-1.57-3.5-4.3-6.04-5.83,6.92,3.3,14.6,7.08,15.95,8.19,2.52,2.07,4.48,8.72,2.16,9.46Z"/>
            <path class="cls-11" d="M274.88,440.54c-14.85-.35-28.24-.92-29.34-1.64-.85-.53-1.29-8.2-1.51-18.07,1.72.35,4.14.86,7.02,1.43l23.83,18.27Z"/>
          </g>
          <g>
            <path class="cls-13" d="M230.49,183.98s9.91,111.49,11.52,120c.37,1.94.61,12.48.76,26.02.34,29.55.14,82.86.14,82.86h46.51s-1.38-92.36-3.44-109.35c-2.06-17.01-15.22-119.53-15.22-119.53h-40.27Z"/>
            <g>
              <path class="cls-1" d="M287.31,404.76c-7.26-.15-5.17-.21-12.43-.28-3.55-.03-26.89-.24-30.21.31-.07.01-.07.14,0,.15,3.32.55,26.66.35,30.21.31,7.26-.07,5.17-.13,12.43-.28.14,0,.14-.21,0-.21Z"/>
              <path class="cls-1" d="M251.74,351.96c-.05-6.75-.1-13.49-.15-20.24-.05-6.53-.04-13.07-.35-19.6-.63-13.22-3.31-26.21-5.22-39.28-1.91-13.08-3.5-26.2-4.94-39.33-1.62-14.74-3.04-29.49-4.56-44.24-.01-.1-.17-.1-.16,0,2.19,26.33,4.64,52.65,8.28,78.82.91,6.51,1.9,13.01,2.97,19.49,1.09,6.56,2.16,13.13,2.68,19.77.51,6.5.59,13.02.66,19.53.07,6.74.14,13.48.2,20.22.15,14.97.29,38.02.44,53,0,.29.45.28.45-.01-.1-13.36-.2-34.79-.3-48.15Z"/>
            </g>
          </g>
          <path class="cls-1" d="M220.68,183.98s19.71,111.49,21.33,120c.37,1.94.61,12.48.76,26.02v.04s22.18-146.06,22.18-146.06h-44.26Z"/>
        </g>
        <g>
          <g>
            <path class="cls-9" d="M198.26,444.24c-2.35-.64-57.07-37.51-58.26-40.24-.47-1.03,4.44-9.32,10.65-19.16.07-.1.13-.2.2-.31,1.28-2.03,2.6-4.11,3.97-6.21.19-.29.38-.58.56-.87,9.13-14.1,18.9-28.54,18.9-28.54l36.68,24.55-19.69,27.64-.78,1.1-4.07,5.73-.42.59s14.63,23.48,15.63,26.62c.98,3.12-1.03,9.76-3.37,9.1Z"/>
            <path class="cls-5" d="M192.78,418.24c-.1-.13-.15-.21-.14-.25,0,0,.05.08.14.25Z"/>
            <path class="cls-1" d="M198.26,444.23c-2.35-.64-57.07-37.51-58.26-40.24-.4-.87,3.12-7.06,8.03-14.96,7.62,7.24,44.47,41.94,47.76,39.13.69-.6.4-2.21-.23-3.99,3.01,5.05,5.67,9.68,6.08,10.96.97,3.12-1.04,9.75-3.38,9.11Z"/>
          </g>
          <g>
            <path class="cls-13" d="M190.74,408.55l-39.68-28.6s51.33-68.52,51.57-74.78c.35-9.32,4.82-47.77,8.57-78.91,0,0-7.11-16.86,6.2-42.32h53.4s-3.58,24.23-9.71,39.59c0,0-4.67,1.45-11.87,5.42,0,0-4.41,75.99-5.74,84.55-3.52,22.65-52.73,95.04-52.73,95.04Z"/>
            <path class="cls-1" d="M193.5,398.9c-5.86-4.29-4.12-3.14-10.02-7.36-2.89-2.07-21.89-15.63-24.92-17.08-.07-.03-.14.07-.08.12,2.4,2.35,21.63,15.58,24.56,17.59,5.98,4.11,4.31,2.86,10.34,6.91.11.08.23-.09.12-.17Z"/>
          </g>
          <g>
            <path class="cls-1" d="M263.12,222.49c-4.81,1.66-9.46,4.01-13.9,6.47-.17.1-.06.37.13.29,4.68-2.01,9.46-3.93,14.02-6.2.36-.18.12-.69-.25-.56Z"/>
            <path class="cls-1" d="M264.61,190.36c-.01-.16-.3-.2-.3-.02.04,5.56-.32,10.45-.79,15.64-.22,2.41-2.16,15.74-6.34,14.77-.7-.16-1.06-.85-1.17-1.91-.13-1.27.35-2.83.56-4.09.46-2.79.84-5.59,1.08-8.41.45-5.26.47-10.52-.17-15.77-.02-.17-.27-.16-.27.02,0,7.28-.18,14.55-1.27,21.77-.52,3.47-2.27,8.69,1.36,9.22,3.69.54,6.08-8.2,6.53-10.59,1.26-6.67,1.31-13.88.78-20.63Z"/>
            <path class="cls-1" d="M257.3,221.11c-.38.89-.68,1.83-.94,2.76-.2.73-.47,1.51-.39,2.27.02.15.21.16.29.06.49-.62.7-1.47.97-2.21.32-.85.65-1.7.95-2.57.19-.57-.65-.87-.88-.32Z"/>
          </g>
        </g>
      </g>
      <g>
        <g>
          <g>
            <path class="cls-9" d="M251.71,134.35c6.39,8.45,23.72,32.79,36.18,31.95,10.67-.72,32.3-8.07,36.69-10.16,8.14-3.88-4.56-27.08-9.56-25.29-7.95,2.85-18.93,10.62-27.33,11.79-3.43.48-10.97-6.85-30.09-14.99-7.4-3.15-10.37.78-5.89,6.71Z"/>
            <g>
              <path class="cls-9" d="M324.03,123.66c4.36-.82,9.3-2.11,13.88-1.3,4.58.8,7.45,7.46,7.18,9.2s-3.69,12.3-8.29,11.59c-4.6-.72-.52-8.61-.55-9.59-.02-.98,0-2.23-.89-2.27-.88-.05-17.18,4.79-17.18,4.79l5.84-12.41Z"/>
              <g>
                <path class="cls-9" d="M324.22,124.34c.26.04,13.33-2.9,17.91-2.09,4.58.8,7.45,7.46,7.18,9.2-.27,1.74-3.69,12.3-8.29,11.59-4.6-.72-.52-8.61-.55-9.59-.02-.98,0-2.23-.89-2.27-.88-.05-17.17,4.79-17.17,4.79l1.81-11.62Z"/>
                <path class="cls-1" d="M339.55,142.21c-.45-.81-.38-1.92-.34-2.83.04-1,.28-1.98.62-2.91.3-.81.79-1.59.95-2.44.15-.79.01-1.78-.26-2.53-.25-.7-.96-.58-1.58-.47-.9.17-1.8.46-2.67.74-.95.3-1.89.62-2.83.93-.97.32-1.98.61-2.9,1.05-.07.03-.04.15.04.13.85-.15,1.67-.44,2.49-.69.94-.27,1.87-.54,2.82-.79.88-.24,1.75-.52,2.63-.75.31-.08.95-.3,1.27-.17.34.13.38,1.02.41,1.31.11.92-.17,1.64-.55,2.46-.36.79-.67,1.6-.87,2.44-.18.78-.29,1.63-.18,2.42.1.77.51,1.44.79,2.15.04.1.2.03.15-.06Z"/>
              </g>
              <g>
                <path class="cls-9" d="M307.76,134.13s14.54-9.62,17.55-11.51c6.04-3.8,29.86-9.45,33.03-9.3,3.17.16,3.3,6.73-12.93,11.01-8.56,2.25-10.7,6.62-10.94,9.19-.24,2.57,1.45,7.68,5.74,8.24,4.3.55,8.04-5.26,12.08-5.34,4.04-.08.32,6.72-3.1,10.45-3.42,3.73-8.99,6.38-12.91,7.19-3.92.81-16.13,3.96-16.13,3.96l-12.39-23.88Z"/>
                <path class="cls-1" d="M345.99,139.57c-1.8,1-3.88,2.33-6.01,2.08-2.2-.26-3.41-1.9-4.14-3.85-.75-1.96-1.02-4.11-.2-6.09.74-1.79,2.1-3.25,3.68-4.34,1.95-1.34,4.15-2.23,6.4-2.95.1-.03.04-.18-.06-.15-2.11.57-8.62,2.13-10.68,7.34-.84,2.13-.49,4.2.25,6.21.68,1.85,1.81,3.71,3.85,4.2,2.5.6,4.99-1.12,7.05-2.37.09-.06-.02-.13-.12-.08Z"/>
              </g>
            </g>
          </g>
          <g>
            <path class="cls-5" d="M306.7,133.54l10.12,28.39s-22.76,7.25-32.9,5.2c-10.14-2.05-25.58-23.17-32.35-32.26-6.78-9.09-.59-11.42,10.92-5.76,11.51,5.65,23.87,12.91,24.92,12.91s19.29-8.48,19.29-8.48Z"/>
            <path class="cls-1" d="M301.74,136.61c.18,1.15.6,2.3.92,3.42.32,1.14.62,2.28.96,3.41.65,2.18,1.36,4.34,2.09,6.49,1.47,4.32,3.02,8.62,4.92,12.77.04.09.18.03.15-.06-1.4-4.41-3.02-8.75-4.52-13.13-.74-2.15-1.46-4.31-2.2-6.46-.37-1.08-.76-2.15-1.12-3.23-.36-1.07-.63-2.22-1.1-3.25-.03-.06-.11-.01-.1.04Z"/>
          </g>
        </g>
        <g>
          <path class="cls-8" d="M272.66,191.77s-21.11,5-61.1,1.55c0,0,15.64-49.91,28.23-63.37,5.73-6.12,11.33-5.19,16.08-1.25,1.18.98,15.87,19.62,17.11,26.12,1.1,5.74-3.57,12.11-3.57,12.11l3.24,24.85Z"/>
          <path class="cls-12" d="M256.57,147.68c.09.71.14,1.43.03,2.17-.32-.68-.47-1.38-.58-2.09-.09-.71-.14-1.43-.03-2.17.32.68.47,1.39.58,2.1ZM256.95,181.4c-.12.74-.06,1.46.03,2.17.11.71.26,1.41.58,2.1.12-.74.07-1.46-.03-2.17-.11-.71-.26-1.41-.58-2.1ZM267.31,187.86c-.12.74-.06,1.46.03,2.17.11.71.26,1.41.58,2.1.12-.74.07-1.46-.03-2.17-.11-.71-.26-1.41-.58-2.1ZM233.73,158.29c-.12.74-.06,1.46.03,2.17.11.71.26,1.41.58,2.09.12-.74.07-1.46-.03-2.17-.11-.71-.26-1.41-.58-2.1ZM268.01,165.58c-.12.74-.06,1.46.03,2.17.11.71.26,1.41.58,2.1.12-.74.07-1.46-.03-2.17-.11-.71-.26-1.41-.58-2.1ZM243.29,152.4c.74.12,1.46.06,2.17-.03.71-.11,1.41-.26,2.09-.58-.74-.12-1.46-.07-2.17.03-.71.11-1.41.26-2.09.58ZM230.84,173.53c.74.12,1.46.06,2.17-.03.71-.11,1.41-.26,2.09-.58-.74-.12-1.46-.07-2.17.03-.71.11-1.41.26-2.09.58ZM251.57,171.79c.74.12,1.46.06,2.17-.03.71-.11,1.41-.26,2.09-.58-.74-.12-1.46-.07-2.17.03-.71.11-1.41.26-2.09.58ZM213.97,191.2c.74.12,1.46.06,2.17-.03.71-.11,1.41-.26,2.1-.58-.74-.12-1.46-.07-2.17.03-.71.11-1.41.26-2.09.58ZM251.43,130.2c.74.12,1.46.06,2.17-.03.71-.11,1.41-.26,2.09-.58-.74-.12-1.46-.07-2.17.03-.71.11-1.41.26-2.09.58ZM244.39,134.03c-.61.44-1.08.99-1.52,1.56-.42.58-.81,1.19-1.07,1.89.61-.44,1.08-.99,1.52-1.56.42-.58.81-1.19,1.07-1.89ZM225.54,160.99c-.61.44-1.08.99-1.52,1.56-.42.58-.81,1.19-1.07,1.89.61-.44,1.08-.99,1.52-1.56.42-.58.81-1.19,1.07-1.89ZM261.46,158.48c-.61.44-1.08.99-1.52,1.56-.42.58-.81,1.19-1.07,1.89.61-.44,1.08-.99,1.52-1.56.42-.58.81-1.19,1.07-1.89ZM243.51,178.58c-.61.44-1.08.99-1.52,1.56-.42.58-.81,1.19-1.07,1.89.61-.44,1.08-.99,1.52-1.56.42-.58.81-1.19,1.07-1.89ZM263.36,138.23c-.15.17-.29.34-.43.53-.43.58-.82,1.19-1.08,1.9.61-.44,1.08-.99,1.52-1.56.1-.14.19-.28.3-.42-.11-.15-.22-.3-.31-.44ZM268.58,153.33c-.44-.61-.99-1.08-1.56-1.52-.58-.42-1.19-.81-1.89-1.07.44.61.99,1.08,1.56,1.52.58.42,1.19.81,1.89,1.07ZM222.89,178.39c-.44-.61-.99-1.08-1.56-1.52-.58-.42-1.19-.81-1.89-1.07.44.61.99,1.08,1.56,1.52.58.42,1.19.81,1.89,1.07ZM269.58,179.18c-.44-.61-.99-1.08-1.56-1.52-.58-.42-1.19-.81-1.89-1.07.44.61.99,1.08,1.56,1.52.58.42,1.19.81,1.89,1.07ZM237.33,147.98c-.44-.61-.99-1.08-1.56-1.52-.58-.42-1.19-.81-1.89-1.07.44.61.99,1.08,1.56,1.52.58.42,1.19.81,1.89,1.07ZM250.59,192.71c-.44-.61-.99-1.08-1.56-1.52-.58-.42-1.19-.81-1.89-1.07.44.61.99,1.08,1.56,1.52.58.42,1.19.81,1.89,1.07ZM246.65,165.21c-.44-.61-.99-1.08-1.56-1.52-.58-.42-1.19-.81-1.89-1.07.44.61.99,1.08,1.56,1.52.58.42,1.19.81,1.89,1.07ZM231.65,187.3c-.44-.61-.99-1.08-1.56-1.52-.58-.42-1.19-.81-1.89-1.07.44.61.99,1.08,1.56,1.52.58.42,1.19.81,1.89,1.07Z"/>
          <path class="cls-5" d="M243.89,126.7l10.03,74.46h-46.1s11.04-47.5,27.78-68.06c4.67-5.74,8.29-6.4,8.29-6.4Z"/>
          <path class="cls-5" d="M256.29,129.14s7.14,18.85,9.84,34.79c2.96,17.47,4.6,34.81,4.6,34.81l3.18-2.54-4.37-29.25s4.28-5.04,3.62-12.52c-.53-5.99-16.85-25.28-16.85-25.28Z"/>
          <path class="cls-1" d="M269.76,146.97c-.88-1.33-1.79-2.66-2.72-3.94-.15-.46-.34-.9-.51-1.35-.29-.64-.58-1.3-.96-1.89.17.69.45,1.34.71,1.99.09.19.16.36.24.54-.94-1.27-1.91-2.53-2.91-3.74,1.84,2.94,3.84,5.77,5.69,8.69.94,1.45,1.84,2.92,2.58,4.46.24.5.45,1.01.63,1.53.37,1.3,1.07,3.99-.38,8.09-.48,1.38-.85,2.79-1.56,4.07-.05.1.1.18.15.08.71-1.29,1.32-2.74,1.87-4.11.54-1.34.8-2.84.89-4.28.25-4.16-1.86-6.94-3.72-10.14Z"/>
        </g>
        <g>
          <g>
            <path class="cls-9" d="M244.27,127.32c.24,1.08,5.3,8.12,10.22,7.95,1.6-.06,1.67-8.83,1.67-8.83l.15-.65,2.13-9.04-10.57-6.95-1.53-.92s-.42,2.51-.91,5.65c-.02.15-.05.29-.07.45-.03.18-.07.34-.09.51-.08.47-.16.94-.23,1.42-.05.36-.11.72-.15,1.1-.05.38-.1.76-.15,1.14-.44,3.79-.57,7.72-.47,8.18Z"/>
            <path class="cls-1" d="M245.42,114.52c2.52,7.25,8.25,10.25,10.88,11.27l2.13-9.04-10.57-6.95-1.53-.92s-.42,2.51-.91,5.65Z"/>
          </g>
          <g>
            <path class="cls-9" d="M270.61,100.08c3.25,15.98-5.95,19.73-9.4,20.43-3.13.63-13.86,2.39-18.75-13.17-4.88-15.56,1.52-22.12,8.6-23.95,7.08-1.83,16.3.71,19.55,16.69Z"/>
            <g>
              <path class="cls-1" d="M267.8,97.78c-.38.02-.74-.02-1.13-.03-.43-.02-.78.01-1.14-.25-.2-.14-.25-.49-.12-.7.28-.47.82-.58,1.34-.58.56,0,1,.14,1.44.5.42.35.13,1.03-.38,1.07Z"/>
              <path class="cls-1" d="M256.79,99.73c.37-.11.69-.28,1.04-.42.4-.17.73-.26.98-.64.13-.2.06-.55-.13-.7-.43-.34-.97-.26-1.45-.08-.53.2-.89.48-1.17.97-.28.47.24,1.01.73.86Z"/>
              <g>
                <g>
                  <path class="cls-1" d="M260.04,103.21s-.07.07-.06.11c.26,1.08.37,2.36-.54,2.92-.03.02-.01.07.02.06,1.17-.41,1-2.11.58-3.1Z"/>
                  <path class="cls-1" d="M258.84,102.27c-1.78.23-1.2,3.76.45,3.55,1.62-.21,1.04-3.74-.45-3.55Z"/>
                </g>
                <path class="cls-1" d="M258.17,102.57c-.28.25-.52.65-.89.75-.42.11-.81-.2-1.15-.51-.04-.03-.06,0-.05.05.1.68.48,1.33,1.22,1.31.68-.02,1.06-.69,1.11-1.4.01-.13-.13-.3-.24-.2Z"/>
              </g>
              <g>
                <g>
                  <path class="cls-1" d="M266.09,101.98s.09.04.1.08c.14,1.1.48,2.34,1.53,2.55.03,0,.04.06,0,.06-1.24.02-1.68-1.63-1.63-2.7Z"/>
                  <path class="cls-1" d="M266.89,100.68c1.74-.41,2.44,3.11.82,3.49-1.59.37-2.28-3.14-.82-3.49Z"/>
                </g>
                <path class="cls-1" d="M267.67,100.77c.31.13.66.42.99.37.39-.05.6-.49.77-.9.02-.04.05-.02.06.03.15.67.07,1.41-.55,1.67-.57.23-1.11-.26-1.4-.9-.05-.12,0-.33.13-.27Z"/>
              </g>
              <path class="cls-1" d="M261.39,112.22c.29.23.6.55,1,.54.39-.01.82-.24,1.15-.42.03-.02.07.01.05.05-.24.46-.81.79-1.33.76-.51-.03-.81-.43-.98-.87-.02-.06.06-.1.1-.06Z"/>
              <g>
                <path class="cls-1" d="M265.31,109.69s-.5,1.18-1.43,1.79c-.34.23-.73.38-1.18.37-.93-.02-1.14-.81-1.14-1.53,0-.59.14-1.14.14-1.14,0,0,1.56.88,3.62.52Z"/>
                <path class="cls-4" d="M263.88,111.49c-.34.23-.73.38-1.18.37-.93-.02-1.14-.81-1.14-1.53.96-.13,2.03.28,2.33,1.17Z"/>
              </g>
              <path class="cls-1" d="M265.27,107.47s.51,1.59.65,2.36c.01.07-.17.14-.43.2-.01,0-.02.01-.03,0-1.32.45-2.78.22-3.8-.74-.07-.07.02-.16.1-.13,1.15.57,2.3.56,3.51.37.02-.22-.97-2.7-.85-2.73.41-.11,1.29.03,1.82.09-.97-3.35-2.48-6.52-3.4-9.87-.03-.12.14-.19.19-.09,1.81,3.21,3.02,7.04,4.11,10.47.14.43-1.55.13-1.88.05Z"/>
            </g>
            <g>
              <path class="cls-1" d="M259.95,86.06s.65,2.43-.19,4.18c-1.72,3.61-6.06,2.67-7.55,4.1-1.39,1.34-.9,4.11-2.15,5.45-1.74,1.86-4.12,1.14-4.4,2.39-.29,1.25-1.1,5.22-2.69,5.73-1.59.51-8.94-25.87,11.83-25.09,0,0,2.85-1.17,7.28,1.05,4.89,2.45,7.03,10.47,7.03,10.47,0,0-.1-.11-.82-.73-1-.88-1.39-1.7-2.13-2.27-1.16-.9-1.79-.55-2.99-1.43-1.83-1.33-3.21-3.84-3.21-3.84Z"/>
              <path class="cls-1" d="M259.63,84.92c.32,1.03.54,2.1.61,3.17.08,1.06.03,2.17-.44,3.09-.47.89-1.41,1.5-2.38,1.86-.99.37-2.08.47-3.14.9-.52.23-1.03.54-1.39,1.05-.35.5-.49,1.07-.61,1.6-.22,1.07-.44,2.12-1.14,2.88-.69.76-1.72,1.22-2.78,1.18-1.05,0-2.2-.29-3.22.18,1.05-.38,2.12,0,3.22.07,1.12.1,2.27-.34,3.08-1.15.85-.82,1.08-2.02,1.31-3.04.12-.52.27-1.03.55-1.42.27-.39.72-.66,1.19-.86.95-.4,2.05-.53,3.1-.93.52-.2,1.03-.46,1.48-.81.44-.34.87-.77,1.09-1.31.48-1.06.47-2.21.33-3.29-.16-1.09-.46-2.14-.87-3.15Z"/>
              <path class="cls-1" d="M260.03,85.86c.2.99.55,1.95,1.01,2.86.45.91,1.16,1.76,2.09,2.28.46.27.99.4,1.44.55.43.15.88.42,1.12.75.27.38.53.86.91,1.22.38.36.84.62,1.32.77-.43-.25-.84-.55-1.13-.94-.32-.37-.5-.81-.76-1.27-.31-.51-.79-.76-1.28-.98-.5-.19-.95-.3-1.36-.55-.83-.47-1.47-1.2-1.98-2.05-.52-.83-.96-1.74-1.37-2.66Z"/>
            </g>
            <g>
              <g>
                <path class="cls-9" d="M243.63,113.23c.28.07.53.1.77.11.28.02.54-.01.77-.07.36-.08.66-.23.9-.41.22-.16.41-.35.56-.54.38-.49.51-.98.51-.98l-1.39-4.23s-4.12-4.65-6.26-3.13c-2.15,1.53,1.34,8.55,4.15,9.24Z"/>
                <path class="cls-1" d="M240.53,105.98s-.05.06,0,.07c1.98.55,3.17,2.19,4.08,3.92-.64-.63-1.45-.93-2.31-.15-.05.04.01.11.06.09.75-.25,1.33-.18,1.92.38.42.4.74.92,1.06,1.4.11.16.4.03.32-.15,0-.01-.01-.03-.02-.04-.23-2.41-2.49-5.57-5.1-5.52Z"/>
              </g>
              <path class="cls-10" d="M243.78,112.53c.13.4.55.61.95.49.4-.13.61-.55.49-.95-.13-.4-.55-.61-.95-.49-.4.13-.61.55-.49.95Z"/>
              <path class="cls-10" d="M242.11,111.57c.09.28.39.43.67.34.28-.09.43-.39.34-.67-.09-.28-.39-.43-.67-.34-.28.09-.43.39-.34.67Z"/>
            </g>
          </g>
        </g>
        <g>
          <path class="cls-9" d="M236.07,134.55c-8.81,15.2-24.9,50.65-17.43,57.22,12.28,10.81,39.71,18.05,48.15,19.36,3.64.57,12.58-26.61,9-28.25-4.3-1.96-33.42-7.43-33.61-9.83-.11-1.36,1.55-13.09,2.33-27.98.9-17.28-4.23-17.77-8.42-10.53Z"/>
          <g>
            <path class="cls-9" d="M262.8,182.86s10.23-4.59,17.06-7.27c3.81-1.5,10.57-3.48,13.88-3.3,4.94.27,25.43,4.55,24.5,9.54-.84,4.52-17.98-1.4-17.98-1.4,0,0,17.82,4.44,15.8,9.69-2.01,5.25-20.49-4-20.49-4,0,0,18.21,4.97,15.27,10.06-2.22,3.84-19.42-3.6-19.42-3.6,0,0,15.62,4.38,13.51,8.43-2.33,4.48-18.64-1.39-18.64-1.39-7.1,9.4-14.32,10.97-19.59,11.47-1.28.12-3.89-28.23-3.89-28.23Z"/>
            <g>
              <path class="cls-1" d="M294.19,178.5c2.11.45,4.25.88,6.32,1.51,2.07.63,4.11,1.34,6.11,2.16,4.9,2.01,7.65,4.04,7.47,3.93-4.34-2.52-11.7-4.9-13.77-5.53-2.06-.63-4.09-1.36-6.15-2-.05-.02-.02-.09.03-.08Z"/>
              <path class="cls-1" d="M291.77,185.91c2.67.69,5.35,1.27,7.99,2.07,2.63.8,5.05,1.79,7.62,2.77.2.08.09.16-.11.09-2.6-.88-5.08-1.48-7.7-2.33-2.61-.84-5.2-1.79-7.83-2.54-.04-.01-.02-.07.02-.06Z"/>
              <path class="cls-1" d="M288.55,191.9c4.14.84,8.11,2.44,11.98,4.1.19.08.04.17-.16.1-3.96-1.44-7.05-2.6-11.85-4.06-.07-.02-.06-.16.03-.14Z"/>
            </g>
          </g>
          <g>
            <path class="cls-5" d="M265.56,179.18l-4.28,32.51s-41.66-12.57-44.57-21.69c-2.92-9.12,7.61-36.17,17.26-53.02,9.64-16.85,11.3-.78,11.19,5.65-.11,6.43-2.23,28.85-2.23,28.85l22.62,7.69Z"/>
            <g>
              <path class="cls-1" d="M260.52,179.74c-.39,1.1-.56,2.31-.81,3.45-.26,1.15-.53,2.3-.77,3.45-.46,2.23-.86,4.46-1.24,6.7-.75,4.5-1.43,9.02-1.72,13.58,0,.1.15.11.17.02.85-4.55,1.49-9.13,2.24-13.7.37-2.24.75-4.49,1.12-6.73.19-1.12.35-2.25.54-3.37.19-1.11.49-2.25.57-3.38,0-.07-.09-.06-.11-.01Z"/>
              <path class="cls-1" d="M256.4,176.02c-2.39-.67-13.25-4.74-13.25-4.75.71-5.2,1.03-10.46,1.36-15.69.12-.55.25-1.11.36-1.66.2-.96.34-1.93.54-2.9,0-.02-.03-.03-.04,0-.25.95-.54,1.89-.75,2.84,0,.01,0,.03,0,.04.09-1.67.18-3.33.26-5,0-.08-.13-.09-.14-.02-.91,7.42-2.21,22.6-2,22.7,2.17,1.03,11.25,3.72,13.58,4.49.09.03.19-.03.09-.06Z"/>
              <path class="cls-1" d="M232.36,201.06c-.95-.41-1.85-.98-2.75-1.49-.91-.52-1.8-1.07-2.68-1.63-1.83-1.16-3.62-2.39-5.32-3.74-1.62-1.28-3.21-2.61-3.96-4.6-.75-2.02-.8-4.28-.68-6.41.26-4.47,1.56-8.88,2.86-13.14,1.28-4.19,2.71-8.34,4.36-12.4.91-2.25,1.87-4.48,2.88-6.68,1.03-2.24,2.21-4.4,3.26-6.63.05-.11-.1-.2-.17-.09-1.22,1.91-2.24,3.95-3.26,5.97-.32.64-.64,1.29-.96,1.94.04-.11.07-.22.11-.33.25-.8.5-1.61.75-2.41.03-.09-.11-.13-.14-.04-.43,1.28-.86,2.56-1.28,3.85-.02.06-.09.21-.14.4-.43.9-.86,1.81-1.26,2.73-1.79,4.08-3.41,8.24-4.78,12.48-1.41,4.36-2.76,8.85-3.15,13.43-.19,2.19-.18,4.48.37,6.61.53,2.05,1.71,3.59,3.33,4.91,1.83,1.5,3.79,2.87,5.81,4.1,1.05.64,2.14,1.22,3.24,1.76,1.14.56,2.34,1,3.49,1.55.09.04.17-.1.08-.14Z"/>
            </g>
          </g>
        </g>
        <g>
          <path class="cls-8" d="M256.25,126.07l-2.35,7.47-9.7-8.48-2.32,3.14s9.92,13.89,9.93,13.22l2.51-6.47,4.64,4.01-1.19-10.88-1.51-2.01Z"/>
          <path class="cls-1" d="M258.66,133.55c-.26-1.79-.46-3.6-.8-5.38-.01-.06-.11-.08-.12,0-.23,1.76.79,8.6.91,10.25,0,0-.01-.01-.02-.02-.19-.17-4.29-3.52-4.32-3.46-.57,1.04-2.41,5.76-2.53,6.18-1.57-2.21-7.55-10.21-9.37-12.27-.05-.06-.15,0-.1.07,1.42,2.35,9.35,13.13,9.46,13.09.08.05,2.37-5.76,2.62-6.84.71.74,4.87,4.55,4.86,4.28-.05-1.81-.31-4.12-.57-5.91Z"/>
        </g>
      </g>
    </g>
  </g>
  <g id="Window_3" data-name="Window 3">
    <g>
      <g>
        <g class="cls-15">
          <rect class="cls-5" x="55.58" y="266.03" width="202.38" height="105.7"/>
          <path class="cls-8" d="M257.96,371.73l-202.38.27h-.27s0-.27,0-.27l-.11-105.7v-.37s.37,0,.37,0l202.38.1h.27s0,.27,0,.27l-.09,52.93-.18,52.78ZM257.96,371.73l-.27-105.7.27.27-202.38.1.37-.37-.11,105.7-.27-.27,202.38.27Z"/>
        </g>
        <g>
          <rect class="cls-3" x="55.58" y="258.41" width="202.38" height="7.62"/>
          <g>
            <path class="cls-12" d="M61.64,262.22c0,1.04-.85,1.89-1.89,1.89s-1.89-.85-1.89-1.89.85-1.89,1.89-1.89,1.89.85,1.89,1.89Z"/>
            <path class="cls-10" d="M69.35,262.22c0,1.04-.85,1.89-1.89,1.89s-1.89-.85-1.89-1.89.85-1.89,1.89-1.89,1.89.85,1.89,1.89Z"/>
            <path class="cls-5" d="M77.06,262.22c0,1.04-.85,1.89-1.89,1.89s-1.89-.85-1.89-1.89.85-1.89,1.89-1.89,1.89.85,1.89,1.89Z"/>
          </g>
        </g>
      </g>
      <g>
        <g>
          <path class="cls-10" d="M71.15,287.97c28.92-.14,56.38-.11,85.3-.17,28.92.06,57.17.02,86.09.17-28.92.14-57.17.11-86.09.17-28.92-.06-56.38-.02-85.3-.17Z"/>
          <path class="cls-10" d="M71.15,301.6c28.92-.14,56.38-.11,85.3-.17,28.92.06,57.17.02,86.09.17-28.92.14-57.17.11-86.09.17-28.92-.06-56.38-.02-85.3-.17Z"/>
          <path class="cls-10" d="M71.15,315.24c28.92-.14,56.38-.11,85.3-.17,28.92.06,57.17.02,86.09.17-28.92.14-57.17.11-86.09.17-28.92-.06-56.38-.02-85.3-.17Z"/>
          <path class="cls-10" d="M71.15,328.88c28.92-.14,56.38-.11,85.3-.17,28.92.06,57.17.02,86.09.17-28.92.14-57.17.11-86.09.17-28.92-.06-56.38-.02-85.3-.17Z"/>
          <path class="cls-10" d="M71.15,342.51c28.92-.14,56.38-.11,85.3-.17,28.92.06,57.17.02,86.09.17-28.92.14-57.17.11-86.09.17-28.92-.06-56.38-.02-85.3-.17Z"/>
          <path class="cls-10" d="M87.58,279.1c.14,12.74.11,25.48.17,38.22-.06,12.74-.02,25.48-.17,38.22-.14-12.74-.11-25.48-.17-38.22.06-12.74.02-25.48.17-38.22Z"/>
          <path class="cls-10" d="M102.4,279.1c.14,12.74.11,25.48.17,38.22-.06,12.74-.02,25.48-.17,38.22-.14-12.74-.11-25.48-.17-38.22.06-12.74.02-25.48.17-38.22Z"/>
          <path class="cls-10" d="M117.21,279.1c.14,12.74.11,25.48.17,38.22-.06,12.74-.02,25.48-.17,38.22-.14-12.74-.11-25.48-.17-38.22.06-12.74.02-25.48.17-38.22Z"/>
          <path class="cls-10" d="M132.03,279.1c.14,12.74.11,25.48.17,38.22-.06,12.74-.02,25.48-.17,38.22-.14-12.74-.11-25.48-.17-38.22.06-12.74.02-25.48.17-38.22Z"/>
          <path class="cls-10" d="M146.84,279.1c.14,12.74.11,25.48.17,38.22-.06,12.74-.02,25.48-.17,38.22-.14-12.74-.11-25.48-.17-38.22.06-12.74.02-25.48.17-38.22Z"/>
          <path class="cls-10" d="M161.66,279.1c.14,12.74.11,25.48.17,38.22-.06,12.74-.02,25.48-.17,38.22-.14-12.74-.11-25.48-.17-38.22.06-12.74.02-25.48.17-38.22Z"/>
          <path class="cls-10" d="M176.47,279.1c.14,12.74.11,25.48.17,38.22-.06,12.74-.02,25.48-.17,38.22-.14-12.74-.11-25.48-.17-38.22.06-12.74.02-25.48.17-38.22Z"/>
          <path class="cls-10" d="M191.29,279.1c.14,12.74.11,25.48.17,38.22-.06,12.74-.02,25.48-.17,38.22-.14-12.74-.11-25.48-.17-38.22.06-12.74.02-25.48.17-38.22Z"/>
          <path class="cls-10" d="M206.1,279.1c.14,12.74.11,25.48.17,38.22-.06,12.74-.02,25.48-.17,38.22-.14-12.74-.11-25.48-.17-38.22.06-12.74.02-25.48.17-38.22Z"/>
          <path class="cls-10" d="M220.92,279.1c.14,12.74.11,25.48.17,38.22-.06,12.74-.02,25.48-.17,38.22-.14-12.74-.11-25.48-.17-38.22.06-12.74.02-25.48.17-38.22Z"/>
          <path class="cls-10" d="M235.73,279.1c.14,12.74.11,25.48.17,38.22-.06,12.74-.02,25.48-.17,38.22-.14-12.74-.11-25.48-.17-38.22.06-12.74.02-25.48.17-38.22Z"/>
          <path class="cls-10" d="M70.9,279.93c.19,12.6.36,25.21.37,37.81l.18,37.81-.55-.31,84.57.08,42.28.06,45.45.17-45.45.17-42.28.06-84.57.08h-.56s0-.31,0-.31l.18-37.81c.02-12.6.18-25.21.37-37.81Z"/>
        </g>
        <g class="cls-16">
          <path class="cls-5" d="M71.15,355.55s7.96-33.17,16.04-33.17c6.79,0,9.65,9.78,15.16,9.78,7.27,0,8.27-25.32,15.29-25.32s8.52,9.9,14.54,9.9,8.68-11.66,14.91-11.66,7.76,17.17,14.41,17.17,6.77-27.07,14.92-27.07,10.27,11.66,15.04,11.66,7.52-8.52,14.54-8.52c13.28,0,29.73,57.23,29.73,57.23H71.15Z"/>
        </g>
        <g class="cls-16">
          <path class="cls-5" d="M71.15,355.55s8.57-30.73,16.17-30.73,8.4,8.44,14.8,8.44,6.5-14.83,15.1-14.83c5.93,0,8.01,6.02,14.55,6.02,9,0,7.65-13.97,15-13.97,9.4,0,5.6,19.25,15.4,19.25,6.2,0,7.85-8.63,15.25-8.63,4.9,0,7.04,6.21,13.44,6.21s7.81-12.39,15.81-12.39c13.11,0,29.32,40.64,29.32,40.64H71.15Z"/>
        </g>
        <path class="cls-6" d="M71.15,355.55s7.73-11.29,16.44-11.29c6.54,0,7.71,2.96,14.89,2.96,4.51,0,6.24-11.87,14.9-11.87s8.83,7,14.76,7,7.6-6.6,14.87-6.6,8.15,3.63,14.65,3.63c7.41,0,7.18-14.7,14.81-14.7s7.92,12.23,14.98,12.23c4.97,0,6.9-5.24,14.48-5.24,10.59,0,30.06,23.87,30.06,23.87H71.15Z"/>
      </g>
    </g>
  </g>
  <g id="Window_2" data-name="Window 2">
    <g>
      <g>
        <g class="cls-15">
          <rect class="cls-5" x="286" y="66.23" width="155" height="122.74"/>
          <path class="cls-8" d="M440.99,188.97l-155,.27h-.27s0-.27,0-.27l-.11-122.74v-.37s.37,0,.37,0l154.99.1h.27s0,.27,0,.27l-.27,122.74ZM440.99,188.97l-.27-122.74.27.27-154.99.1.37-.37-.11,122.74-.27-.27,155,.27Z"/>
        </g>
        <g>
          <rect class="cls-3" x="286" y="57.39" width="155" height="8.84"/>
          <g>
            <path class="cls-12" d="M293.03,61.81c0,1.21-.98,2.19-2.19,2.19s-2.19-.98-2.19-2.19.98-2.19,2.19-2.19,2.19.98,2.19,2.19Z"/>
            <path class="cls-10" d="M301.98,61.81c0,1.21-.98,2.19-2.19,2.19s-2.19-.98-2.19-2.19.98-2.19,2.19-2.19,2.19.98,2.19,2.19Z"/>
            <path class="cls-5" d="M310.94,61.81c0,1.21-.98,2.19-2.19,2.19s-2.19-.98-2.19-2.19.98-2.19,2.19-2.19,2.19.98,2.19,2.19Z"/>
          </g>
        </g>
      </g>
      <g>
        <g>
          <g>
            <rect class="cls-1" x="353.52" y="132.93" width="40.01" height=".26"/>
            <circle class="cls-1" cx="392.29" cy="133.05" r="1.53"/>
            <g>
              <g>
                <path class="cls-1" d="M401.52,132l-1.18,2.8c-.04.1-.13.16-.24.16-.03,0-.07,0-.1-.02-.13-.06-.19-.21-.14-.34l1.02-2.43h-1.22c-.14,0-.26-.12-.26-.26s.12-.26.26-.26h1.62s.03,0,.05,0c.03,0,.07.02.1.04,0,0,0,0,.01.01,0,0,.01,0,.02.02,0,0,.01.01.02.02,0,0,.01.01.01.02,0,0,0,.02,0,.02,0,0,0,.01.02.02,0,0,0,.02,0,.02,0,0,0,.01,0,.02,0,.03,0,.07,0,.1,0,.02,0,.03-.01.05Z"/>
                <path class="cls-1" d="M403.81,132.95c.23.23.35.53.35.83s-.12.6-.35.83c-.23.23-.53.35-.83.35h0c-.29,0-.6-.11-.82-.35-.11-.1-.11-.27,0-.38.1-.1.28-.1.38,0,.12.13.28.19.45.19.16,0,.33-.06.45-.19.12-.12.19-.29.19-.45,0-.17-.06-.33-.19-.45-.12-.13-.28-.18-.45-.18s-.33.06-.45.18c-.1.1-.27.1-.38,0-.02-.02-.03-.04-.05-.06,0-.01,0-.01,0-.01,0,0,0-.02,0-.02,0-.01,0-.02,0-.03,0,0,0,0,0,0,0-.03,0-.06,0-.08l.14-1.23c.01-.08.06-.15.12-.19,0,0,.01,0,.02,0,0,0,0,0,.01,0,.04-.02.08-.03.12-.03h1.4c.15,0,.27.12.27.27,0,.14-.12.27-.27.27h-1.16l-.06.47c.1-.03.21-.04.32-.04.3,0,.6.11.83.35Z"/>
                <path class="cls-1" d="M404.88,132.46h0c0-.47.32-.86.79-.86s.78.38.78.84h0c0,.47-.31.86-.79.86s-.78-.38-.78-.84ZM406.02,132.46h0c0-.27-.15-.49-.36-.49s-.36.22-.36.47h0c0,.28.15.49.37.49s.35-.22.35-.47ZM405.43,134.67l2.17-2.97c.03-.06.09-.09.16-.09.1,0,.19.08.19.19,0,.05-.02.09-.04.12l-2.17,2.97c-.04.06-.1.09-.17.09-.1,0-.19-.08-.19-.19,0-.05.02-.09.04-.12ZM406.88,134.16h0c0-.47.32-.86.79-.86s.78.38.78.84h0c0,.47-.32.86-.79.86s-.78-.38-.78-.84ZM408.03,134.16h0c0-.27-.15-.49-.37-.49s-.35.22-.35.47h0c0,.28.15.49.36.49s.36-.22.36-.47Z"/>
              </g>
              <g>
                <rect class="cls-1" x="399.35" y="137.51" width="17.03" height=".41"/>
                <rect class="cls-1" x="399.35" y="138.62" width="17.03" height=".41"/>
                <rect class="cls-1" x="399.35" y="139.73" width="17.03" height=".41"/>
                <rect class="cls-1" x="399.35" y="140.84" width="17.03" height=".41"/>
                <rect class="cls-1" x="399.35" y="141.95" width="17.03" height=".41"/>
                <rect class="cls-1" x="399.35" y="143.06" width="17.03" height=".41"/>
                <rect class="cls-1" x="399.35" y="144.17" width="17.03" height=".41"/>
              </g>
            </g>
          </g>
          <g>
            <polygon class="cls-1" points="393.53 157.92 378.73 157.92 378.69 157.88 353.51 133.15 353.69 132.97 378.84 157.65 393.53 157.65 393.53 157.92"/>
            <path class="cls-3" d="M393.83,157.79c0,.85-.69,1.53-1.53,1.53s-1.53-.69-1.53-1.53.69-1.53,1.53-1.53,1.53.69,1.53,1.53Z"/>
            <g>
              <g>
                <path class="cls-1" d="M401.61,158.56c0,.62-.51,1.13-1.13,1.13s-1.14-.51-1.14-1.13c0-.39.2-.74.51-.94-.1-.13-.16-.29-.16-.47,0-.43.35-.78.79-.78s.78.35.78.78c0,.18-.06.34-.16.47.3.2.51.55.51.94ZM401.09,158.56c0-.34-.27-.62-.61-.62s-.62.28-.62.62c0,.34.28.61.62.61s.61-.28.61-.61ZM400.21,157.15c0,.15.12.27.27.27.14,0,.26-.12.26-.27s-.12-.26-.26-.26c-.15,0-.27.12-.27.26Z"/>
                <path class="cls-1" d="M404.13,157.68c.23.23.35.53.35.83s-.12.6-.35.83c-.23.23-.53.35-.83.35h0c-.29,0-.6-.11-.82-.35-.11-.1-.11-.27,0-.38.1-.1.28-.1.38,0,.12.13.28.19.46.19.16,0,.33-.06.45-.19.12-.12.19-.29.19-.45,0-.17-.06-.33-.19-.46-.12-.13-.28-.18-.45-.18s-.33.06-.46.18c-.1.1-.27.1-.38,0-.02-.02-.03-.04-.05-.06,0-.01,0-.01,0-.01,0,0,0-.02,0-.02,0-.01,0-.02,0-.03,0,0,0,0,0,0,0-.03,0-.06,0-.08l.14-1.23c.01-.08.06-.15.12-.19,0,0,.01,0,.02,0,0,0,0,0,.01,0,.04-.02.08-.03.12-.03h1.4c.15,0,.27.12.27.27,0,.14-.12.27-.27.27h-1.16l-.06.47c.1-.03.21-.04.32-.04.3,0,.6.11.83.35Z"/>
                <path class="cls-1" d="M405.2,157.2h0c0-.47.32-.86.79-.86s.78.38.78.84h0c0,.47-.31.86-.79.86s-.78-.38-.78-.84ZM406.34,157.2h0c0-.27-.15-.49-.36-.49s-.36.22-.36.47h0c0,.28.15.49.37.49s.35-.22.35-.47ZM405.75,159.41l2.17-2.97c.03-.06.09-.09.16-.09.1,0,.19.08.19.19,0,.05-.02.09-.04.12l-2.17,2.97c-.04.06-.1.09-.17.09-.1,0-.19-.08-.19-.19,0-.05.02-.09.04-.12ZM407.21,158.89h0c0-.47.32-.86.79-.86s.78.38.78.84h0c0,.47-.32.86-.79.86s-.78-.38-.78-.84ZM408.35,158.89h0c0-.27-.15-.49-.37-.49s-.35.22-.35.47h0c0,.28.15.49.36.49s.36-.22.36-.47Z"/>
              </g>
              <g>
                <rect class="cls-1" x="399.35" y="162.25" width="17.03" height=".41"/>
                <rect class="cls-1" x="399.35" y="163.36" width="17.03" height=".41"/>
                <rect class="cls-1" x="399.35" y="164.47" width="17.03" height=".41"/>
                <rect class="cls-1" x="399.35" y="165.58" width="17.03" height=".41"/>
                <rect class="cls-1" x="399.35" y="166.69" width="17.03" height=".41"/>
                <rect class="cls-1" x="399.35" y="167.8" width="17.03" height=".41"/>
                <rect class="cls-1" x="399.35" y="168.91" width="17.03" height=".41"/>
              </g>
            </g>
          </g>
          <g>
            <g>
              <polygon class="cls-1" points="353.65 133.06 353.39 133.06 353.39 78.14 393.53 78.14 393.53 78.41 353.65 78.41 353.65 133.06"/>
              <circle class="cls-13" cx="392.29" cy="78.28" r="1.53"/>
            </g>
            <g>
              <g>
                <path class="cls-1" d="M401.14,78.17c.23.23.35.53.35.83s-.12.6-.35.83c-.23.23-.53.35-.83.35h0c-.29,0-.6-.11-.82-.35-.11-.1-.11-.27,0-.38.1-.1.28-.1.38,0,.12.13.28.19.46.19.16,0,.33-.06.45-.19.12-.12.19-.29.19-.45,0-.17-.06-.33-.19-.46-.12-.13-.28-.18-.45-.18s-.33.06-.46.18c-.1.1-.27.1-.38,0-.02-.02-.03-.04-.05-.06,0-.01,0-.01,0-.01,0,0,0-.02,0-.02,0-.01,0-.02,0-.03,0,0,0,0,0,0,0-.03,0-.06,0-.08l.14-1.23c.01-.08.06-.15.12-.19,0,0,.01,0,.02,0,0,0,0,0,.01,0,.04-.02.08-.03.12-.03h1.4c.15,0,.27.12.27.27,0,.14-.12.26-.27.26h-1.16l-.06.47c.1-.03.21-.04.32-.04.3,0,.6.11.83.35Z"/>
                <path class="cls-1" d="M402.26,78.52c0-.44.11-.83.32-1.13.2-.3.51-.53.88-.53s.68.22.88.53c.2.3.32.7.32,1.13s-.11.83-.32,1.13c-.2.3-.51.53-.88.53s-.68-.23-.88-.53c-.21-.3-.32-.7-.32-1.13ZM404.13,78.52c0-.34-.1-.64-.23-.84-.14-.2-.29-.29-.44-.29-.15,0-.31.09-.45.29-.13.2-.23.5-.23.84s.09.64.23.84c.14.2.3.29.45.29s.3-.09.44-.29c.13-.2.23-.5.23-.84Z"/>
                <path class="cls-1" d="M405.58,77.69h0c0-.47.32-.86.79-.86s.78.38.78.84h0c0,.47-.31.86-.79.86s-.78-.38-.78-.84ZM406.72,77.69h0c0-.28-.15-.49-.36-.49s-.36.22-.36.47h0c0,.28.15.49.37.49s.35-.22.35-.47ZM406.13,79.9l2.17-2.97c.03-.06.09-.08.16-.08.1,0,.19.08.19.18,0,.05-.02.09-.04.12l-2.17,2.97c-.04.06-.1.09-.17.09-.1,0-.19-.08-.19-.19,0-.05.02-.09.04-.12ZM407.59,79.38h0c0-.47.32-.86.79-.86s.78.38.78.84h0c0,.47-.32.86-.79.86s-.78-.38-.78-.84ZM408.73,79.38h0c0-.27-.15-.49-.37-.49s-.35.22-.35.47h0c0,.28.15.49.36.49s.36-.22.36-.47Z"/>
              </g>
              <g>
                <rect class="cls-1" x="399.35" y="82.74" width="17.03" height=".41"/>
                <rect class="cls-1" x="399.35" y="83.85" width="17.03" height=".41"/>
                <rect class="cls-1" x="399.35" y="84.96" width="17.03" height=".41"/>
                <rect class="cls-1" x="399.35" y="86.07" width="17.03" height=".41"/>
                <rect class="cls-1" x="399.35" y="87.18" width="17.03" height=".41"/>
                <rect class="cls-1" x="399.35" y="88.29" width="17.03" height=".41"/>
                <rect class="cls-1" x="399.35" y="89.4" width="17.03" height=".41"/>
              </g>
            </g>
          </g>
          <g>
            <polygon class="cls-1" points="353.67 133.15 353.48 132.97 382.25 103.1 393.53 103.1 393.53 103.36 382.37 103.36 353.67 133.15"/>
            <path class="cls-3" d="M393.83,103.24c0,.85-.69,1.53-1.53,1.53s-1.53-.69-1.53-1.53.69-1.53,1.53-1.53,1.53.69,1.53,1.53Z"/>
            <g>
              <g>
                <path class="cls-1" d="M401.7,104c0,.64-.52,1.15-1.15,1.15-.6,0-1.08-.45-1.14-1.03t0-.01c0-.09,0-.18,0-.27,0-.32.05-.66.17-.97.12-.31.31-.61.61-.81.2-.13.44-.21.71-.22.15,0,.26.1.27.25,0,.14-.11.26-.26.27-.18,0-.32.06-.45.13-.12.08-.22.19-.3.33-.02.04-.04.08-.06.12.14-.06.29-.1.45-.1.64,0,1.15.51,1.15,1.15ZM401.17,104c0-.34-.28-.62-.62-.62s-.62.28-.62.62.28.62.62.62.62-.28.62-.62Z"/>
                <path class="cls-1" d="M404.19,103.13c.23.23.35.53.35.83s-.12.6-.35.83c-.23.23-.53.35-.83.35h0c-.29,0-.6-.11-.82-.35-.11-.1-.11-.27,0-.38.1-.1.28-.1.38,0,.12.13.28.19.46.19.16,0,.33-.06.45-.19.12-.12.19-.29.19-.45,0-.17-.06-.33-.19-.46-.12-.13-.28-.18-.45-.18s-.33.06-.46.18c-.1.1-.27.1-.38,0-.02-.02-.03-.04-.05-.06,0-.01,0-.01,0-.01,0,0,0-.02,0-.02,0-.01,0-.02,0-.03,0,0,0,0,0,0,0-.03,0-.06,0-.08l.14-1.23c.01-.08.06-.15.12-.19,0,0,.01,0,.02,0,0,0,0,0,.01,0,.04-.02.08-.03.12-.03h1.4c.15,0,.27.12.27.27,0,.14-.12.27-.27.27h-1.16l-.06.47c.1-.03.21-.04.32-.04.3,0,.6.11.83.35Z"/>
                <path class="cls-1" d="M405.26,102.65h0c0-.47.32-.86.79-.86s.78.38.78.84h0c0,.47-.31.86-.79.86s-.78-.38-.78-.84ZM406.4,102.65h0c0-.27-.15-.49-.36-.49s-.36.22-.36.47h0c0,.28.15.49.37.49s.35-.22.35-.47ZM405.81,104.86l2.17-2.97c.03-.06.09-.09.16-.09.1,0,.19.08.19.19,0,.05-.02.09-.04.12l-2.17,2.97c-.04.06-.1.09-.17.09-.1,0-.19-.08-.19-.19,0-.05.02-.09.04-.12ZM407.26,104.34h0c0-.47.32-.86.79-.86s.78.38.78.84h0c0,.47-.32.86-.79.86s-.78-.38-.78-.84ZM408.41,104.34h0c0-.27-.15-.49-.37-.49s-.35.22-.35.47h0c0,.28.15.49.36.49s.36-.22.36-.47Z"/>
              </g>
              <g>
                <rect class="cls-1" x="399.35" y="107.7" width="17.03" height=".41"/>
                <rect class="cls-1" x="399.35" y="108.81" width="17.03" height=".41"/>
                <rect class="cls-1" x="399.35" y="109.92" width="17.03" height=".41"/>
                <rect class="cls-1" x="399.35" y="111.03" width="17.03" height=".41"/>
                <rect class="cls-1" x="399.35" y="112.14" width="17.03" height=".41"/>
                <rect class="cls-1" x="399.35" y="113.25" width="17.03" height=".41"/>
                <rect class="cls-1" x="399.35" y="114.36" width="17.03" height=".41"/>
              </g>
            </g>
          </g>
        </g>
        <g class="cls-14">
          <g>
            <path class="cls-13" d="M310.61,133.06c0-23.69,19.21-42.9,42.9-42.9v85.8c-23.69,0-42.9-19.21-42.9-42.9Z"/>
            <path class="cls-3" d="M316.66,133.06c0-20.36,16.5-36.86,36.86-36.86,9.91,0,18.91,3.91,25.54,10.28l-25.54,26.57v36.86c-20.36,0-36.86-16.5-36.86-36.86Z"/>
            <path class="cls-1" d="M322.6,133.06c0-17.08,13.84-30.92,30.92-30.92s30.92,13.84,30.92,30.92h-30.92v30.92c-17.08,0-30.92-13.84-30.92-30.92Z"/>
            <path class="cls-3" d="M329.01,133.06c0-13.54,10.98-24.52,24.52-24.52s24.52,10.98,24.52,24.52c0,6.67-2.66,12.71-6.98,17.13l-17.54-17.13v24.52c-13.54,0-24.52-10.98-24.52-24.52Z"/>
          </g>
          <circle class="cls-8" cx="353.53" cy="133.03" r="18.88" transform="translate(95.99 409.36) rotate(-67.64)"/>
        </g>
      </g>
    </g>
  </g>
  <g id="Cursor">
    <g>
      <polygon class="cls-1" points="369.76 134.23 373.68 143.69 369.77 145.31 365.83 135.79 359.37 140.8 359.37 114.16 378.01 133 369.76 134.23"/>
      <g>
        <path class="cls-1" d="M361.19,107.14c-.39-1.38-.48-2.77-.5-4.15.01-1.38.1-2.77.5-4.15.4,1.38.49,2.77.5,4.15-.02,1.38-.11,2.77-.5,4.15Z"/>
        <path class="cls-1" d="M354.04,110.1c-1.26-.7-2.3-1.62-3.29-2.58-.97-.99-1.88-2.03-2.58-3.29,1.26.7,2.3,1.61,3.29,2.58.97.99,1.88,2.03,2.58,3.29Z"/>
        <path class="cls-1" d="M351.08,117.26c-1.38.39-2.77.48-4.15.5-1.38-.01-2.77-.1-4.15-.5,1.38-.4,2.77-.49,4.15-.5,1.38.02,2.77.11,4.15.5Z"/>
        <path class="cls-1" d="M354.04,124.41c-.7,1.26-1.62,2.3-2.58,3.29-.99.97-2.03,1.88-3.29,2.58.7-1.26,1.61-2.3,2.58-3.29.99-.97,2.03-1.88,3.29-2.58Z"/>
        <path class="cls-1" d="M371.31,117.26c1.38-.39,2.77-.48,4.15-.5,1.38.01,2.77.1,4.15.5-1.38.4-2.77.49-4.15.5-1.38-.02-2.77-.11-4.15-.5Z"/>
        <path class="cls-1" d="M368.35,110.1c.7-1.26,1.62-2.3,2.58-3.29.99-.97,2.03-1.88,3.29-2.58-.7,1.26-1.61,2.3-2.58,3.29-.99.97-2.03,1.88-3.29,2.58Z"/>
      </g>
    </g>
  </g>
</svg>