<svg class="svg-icon" width="51" height="50" viewBox="0 0 51 50" fill="none" xmlns="http://www.w3.org/2000/svg">
<path d="M8.5 7C5.19 7 2.5 9.69 2.5 13V33C2.5 35.97 4.66 38.4402 7.5 38.9102V36.8691C5.77 36.4291 4.5 34.86 4.5 33V13C4.5 10.79 6.29 9 8.5 9H41.5C43.71 9 45.5 10.79 45.5 13V33C45.5 34.86 44.23 36.4291 42.5 36.8691V38.9102C45.34 38.4402 47.5 35.97 47.5 33V13C47.5 9.69 44.81 7 41.5 7H8.5ZM37 15C35.619 15 34.5 16.119 34.5 17.5V41.5C34.5 42.881 35.619 44 37 44C38.381 44 39.5 42.881 39.5 41.5V17.5C39.5 16.119 38.381 15 37 15ZM21 21C19.619 21 18.5 22.119 18.5 23.5V41.5C18.5 42.881 19.619 44 21 44C22.381 44 23.5 42.881 23.5 41.5V23.5C23.5 22.119 22.381 21 21 21ZM29 25C27.619 25 26.5 26.119 26.5 27.5V41.5C26.5 42.881 27.619 44 29 44C30.381 44 31.5 42.881 31.5 41.5V27.5C31.5 26.119 30.381 25 29 25ZM13 30C11.619 30 10.5 31.119 10.5 32.5V41.5C10.5 42.881 11.619 44 13 44C14.381 44 15.5 42.881 15.5 41.5V32.5C15.5 31.119 14.381 30 13 30Z" fill="#8F00D3"/>
</svg>
