<svg width="220" height="221" viewBox="0 0 220 221" fill="none" xmlns="http://www.w3.org/2000/svg">
<path d="M204.237 112.145H219.987C219.987 112.145 223.662 6.71913 107.119 0V10.3365C107.119 10.3365 32.0495 5.68589 10 94.0577C10 94.0577 34.1487 13.9539 108.168 17.5733C182.188 21.1907 203.711 78.555 204.237 112.147V112.145Z" fill="#8F00D3"/>
<path d="M15.7629 108.002H0.0129298C0.0129298 108.002 -3.66164 213.427 112.881 220.147V209.81C112.881 209.81 187.95 214.461 210 126.089C210 126.089 185.851 206.193 111.832 202.573C37.8124 198.956 16.2887 141.592 15.7629 108V108.002Z" fill="#8F00D3"/>
<g filter="url(#filter0_d_252_115)">
<circle cx="110" cy="110" r="84" fill="white"/>
</g>
<path d="M110 146.884C130.296 146.884 146.75 130.43 146.75 110.134C146.75 89.8372 130.296 73.3837 110 73.3837C89.7035 73.3837 73.25 89.8372 73.25 110.134C73.25 130.43 89.7035 146.884 110 146.884Z" stroke="#6B6B6B" stroke-width="4" stroke-miterlimit="10"/>
<path d="M97.2199 84.9262C101.345 82.3537 104.225 81.9112 109.22 81.8737C124.505 81.7612 137.802 94.0162 138.245 109.294C138.71 125.539 125.472 138.806 109.235 138.379C94.0399 137.981 81.6574 124.736 81.7399 109.541C81.7699 104.306 82.2199 101.314 84.9424 97.0762L86.6224 98.2237C89.6374 100.286 93.5374 100.534 96.7924 98.8687C98.2399 98.1262 99.3124 96.8062 99.7474 95.2387C100.662 91.9237 99.9424 88.3687 97.8124 85.6612L97.2349 84.9262H97.2199Z" stroke="#8F00D3" stroke-width="4" stroke-miterlimit="10"/>
<path d="M35 110.846C35 110.846 106.325 10.7811 185 110.846C185 110.846 116.39 208.489 35 110.846Z" stroke="#6B6B6B" stroke-width="4" stroke-miterlimit="10"/>
<defs>
<filter id="filter0_d_252_115" x="11.1" y="15.1" width="197.8" height="197.8" filterUnits="userSpaceOnUse" color-interpolation-filters="sRGB">
<feFlood flood-opacity="0" result="BackgroundImageFix"/>
<feColorMatrix in="SourceAlpha" type="matrix" values="0 0 0 0 0 0 0 0 0 0 0 0 0 0 0 0 0 0 127 0" result="hardAlpha"/>
<feMorphology radius="6" operator="dilate" in="SourceAlpha" result="effect1_dropShadow_252_115"/>
<feOffset dy="4"/>
<feGaussianBlur stdDeviation="4.45"/>
<feComposite in2="hardAlpha" operator="out"/>
<feColorMatrix type="matrix" values="0 0 0 0 0 0 0 0 0 0 0 0 0 0 0 0 0 0 0.25 0"/>
<feBlend mode="normal" in2="BackgroundImageFix" result="effect1_dropShadow_252_115"/>
<feBlend mode="normal" in="SourceGraphic" in2="effect1_dropShadow_252_115" result="shape"/>
</filter>
</defs>
</svg>
