<svg width="220" height="221" viewBox="0 0 220 221" fill="none" xmlns="http://www.w3.org/2000/svg">
<path d="M204.237 112.145H219.987C219.987 112.145 223.662 6.71916 107.119 2.82045e-05V10.3365C107.119 10.3365 32.0495 5.68592 10 94.0578C10 94.0578 34.1487 13.9539 108.168 17.5733C182.188 21.1907 203.711 78.555 204.237 112.147V112.145Z" fill="#8F00D3"/>
<path d="M15.7629 108.002H0.0129298C0.0129298 108.002 -3.66164 213.427 112.881 220.147V209.81C112.881 209.81 187.95 214.461 210 126.089C210 126.089 185.851 206.193 111.832 202.573C37.8124 198.956 16.2887 141.592 15.7629 108V108.002Z" fill="#8F00D3"/>
<g filter="url(#filter0_d_250_108)">
<circle cx="109" cy="108" r="84" fill="white"/>
</g>
<path d="M129.214 77.077C123.318 73.8334 116.545 71.9891 109.339 71.9891C86.5072 71.9891 68 90.4963 68 113.328C68 136.16 86.5072 154.667 109.339 154.667C132.171 154.667 150.678 136.16 150.678 113.328C150.678 106.402 148.968 99.8771 145.953 94.1405" stroke="#6B6B6B" stroke-width="4" stroke-miterlimit="10"/>
<path d="M134.047 102.453C135.516 105.779 136.337 109.455 136.337 113.328C136.337 128.236 124.253 140.32 109.346 140.32C94.438 140.32 82.3542 128.236 82.3542 113.328C82.3542 98.4207 94.438 86.3369 109.346 86.3369C113.448 86.3369 117.334 87.2591 120.812 88.8936" stroke="#6B6B6B" stroke-width="4" stroke-miterlimit="10"/>
<path d="M120.806 88.8873C117.327 87.2528 113.441 86.3306 109.339 86.3306C94.4317 86.3306 82.3479 98.4143 82.3479 113.322C82.3479 128.229 94.4317 140.313 109.339 140.313C124.247 140.313 136.331 128.229 136.331 113.322C136.331 109.449 135.51 105.773 134.041 102.446" stroke="#6B6B6B" stroke-width="4" stroke-miterlimit="10"/>
<path d="M121.544 111.179C121.665 111.878 121.741 112.591 121.741 113.322C121.741 120.171 116.189 125.724 109.339 125.724C102.49 125.724 96.9375 120.171 96.9375 113.322C96.9375 106.472 102.49 100.92 109.339 100.92C110.261 100.92 111.165 101.028 112.029 101.219" stroke="#6B6B6B" stroke-width="4" stroke-miterlimit="10"/>
<path d="M112.029 101.225C111.165 101.035 110.268 100.926 109.339 100.926C102.49 100.926 96.9375 106.479 96.9375 113.328C96.9375 120.178 102.49 125.73 109.339 125.73C116.189 125.73 121.741 120.178 121.741 113.328C121.741 112.597 121.665 111.885 121.544 111.185" stroke="#8F00D3" stroke-width="4" stroke-miterlimit="10"/>
<path d="M108.252 114.409L138.665 84.747L158.361 80.5558L171.901 67.2637H157.127L156.879 52L143.097 65.0505L138.665 84.747" stroke="#6B6B6B" stroke-width="4" stroke-miterlimit="10"/>
<defs>
<filter id="filter0_d_250_108" x="10.1" y="13.1" width="197.8" height="197.8" filterUnits="userSpaceOnUse" color-interpolation-filters="sRGB">
<feFlood flood-opacity="0" result="BackgroundImageFix"/>
<feColorMatrix in="SourceAlpha" type="matrix" values="0 0 0 0 0 0 0 0 0 0 0 0 0 0 0 0 0 0 127 0" result="hardAlpha"/>
<feMorphology radius="6" operator="dilate" in="SourceAlpha" result="effect1_dropShadow_250_108"/>
<feOffset dy="4"/>
<feGaussianBlur stdDeviation="4.45"/>
<feComposite in2="hardAlpha" operator="out"/>
<feColorMatrix type="matrix" values="0 0 0 0 0 0 0 0 0 0 0 0 0 0 0 0 0 0 0.25 0"/>
<feBlend mode="normal" in2="BackgroundImageFix" result="effect1_dropShadow_250_108"/>
<feBlend mode="normal" in="SourceGraphic" in2="effect1_dropShadow_250_108" result="shape"/>
</filter>
</defs>
</svg>
