<svg width="51" height="50" viewBox="0 0 51 50" fill="none" xmlns="http://www.w3.org/2000/svg">
<path d="M27.2068 3.293L6.20682 24.293C5.81582 24.684 5.81582 25.317 6.20682 25.707L11.7928 31.293C12.1838 31.684 12.8168 31.684 13.2068 31.293L39.7928 4.707C40.4228 4.077 39.9768 3 39.0858 3H27.9138C27.6488 3 27.3948 3.105 27.2068 3.293ZM39.7928 24.707L22.4998 42L16.2068 35.707C15.8158 35.316 15.8158 34.683 16.2068 34.293L27.2068 23.293C27.3948 23.105 27.6488 23 27.9138 23H39.0858C39.9768 23 40.4228 24.077 39.7928 24.707ZM39.7928 45.293L32.4998 38L22.4998 42L27.2068 46.707C27.3948 46.895 27.6488 47 27.9138 47H39.0858C39.9768 47 40.4228 45.923 39.7928 45.293Z" fill="#8F00D3"/>
</svg>
