<svg width="51" height="50" viewBox="0 0 51 50" fill="none" xmlns="http://www.w3.org/2000/svg">
<path d="M8.83317 6.66666C8.39116 6.66671 7.96726 6.84232 7.65471 7.15487C7.34216 7.46742 7.16655 7.89132 7.1665 8.33333V35C7.16655 35.442 7.34216 35.8659 7.65471 36.1785C7.96726 36.491 8.39116 36.6666 8.83317 36.6667H20.4966V40H13.55C13.1266 40 12.719 40.1625 12.4106 40.4525L9.09684 43.5612C8.54518 44.0762 8.91476 45 9.66976 45H41.3299C42.0849 45 42.4545 44.0746 41.9028 43.5579L38.589 40.4492C38.279 40.1609 37.873 40 37.4497 40H30.4966V36.6667H42.1665C42.6085 36.6666 43.0324 36.491 43.345 36.1785C43.6575 35.8659 43.8331 35.442 43.8332 35V8.33333C43.8331 7.89132 43.6575 7.46742 43.345 7.15487C43.0324 6.84232 42.6085 6.66671 42.1665 6.66666H8.83317ZM10.4998 10H40.4998V33.3333H10.4998V10ZM20.4673 14.9837C20.0343 14.9966 19.6233 15.1776 19.3215 15.4883L14.3215 20.4883C14.009 20.8008 13.8335 21.2247 13.8335 21.6667C13.8335 22.1086 14.009 22.5325 14.3215 22.845L19.3215 27.845C19.475 28.005 19.659 28.1327 19.8625 28.2207C20.0661 28.3087 20.2851 28.3551 20.5069 28.3574C20.7286 28.3597 20.9486 28.3176 21.1539 28.2338C21.3591 28.15 21.5457 28.0261 21.7025 27.8693C21.8593 27.7125 21.9832 27.526 22.067 27.3207C22.1508 27.1154 22.1928 26.8954 22.1906 26.6737C22.1883 26.452 22.1418 26.2329 22.0539 26.0293C21.9659 25.8258 21.8382 25.6418 21.6782 25.4883L17.8566 21.6667L21.6782 17.845C21.9191 17.6109 22.0836 17.3095 22.1502 16.9803C22.2168 16.6511 22.1824 16.3095 22.0514 16.0002C21.9205 15.6909 21.6993 15.4283 21.4166 15.247C21.1339 15.0656 20.803 14.9738 20.4673 14.9837ZM30.4836 14.9837C30.152 14.9838 29.828 15.0828 29.553 15.268C29.278 15.4532 29.0644 15.7162 28.9397 16.0233C28.8149 16.3305 28.7846 16.6679 28.8526 16.9924C28.9206 17.3169 29.0839 17.6138 29.3215 17.845L33.1431 21.6667L29.3215 25.4883C29.1615 25.6418 29.0338 25.8258 28.9458 26.0293C28.8578 26.2329 28.8114 26.452 28.8091 26.6737C28.8068 26.8954 28.8489 27.1154 28.9327 27.3207C29.0165 27.526 29.1404 27.7125 29.2972 27.8693C29.454 28.0261 29.6405 28.15 29.8458 28.2338C30.0511 28.3176 30.2711 28.3597 30.4928 28.3574C30.7146 28.3551 30.9336 28.3087 31.1372 28.2207C31.3407 28.1327 31.5247 28.005 31.6782 27.845L36.6782 22.845C36.9907 22.5325 37.1662 22.1086 37.1662 21.6667C37.1662 21.2247 36.9907 20.8008 36.6782 20.4883L31.6782 15.4883C31.5229 15.3286 31.3372 15.2017 31.132 15.1151C30.9268 15.0284 30.7063 14.9837 30.4836 14.9837Z" fill="#8F00D3"/>
</svg>
