<svg width="220" height="221" viewBox="0 0 220 221" fill="none" xmlns="http://www.w3.org/2000/svg">
<path d="M204.237 112.145H219.987C219.987 112.145 223.662 6.71913 107.119 0V10.3365C107.119 10.3365 32.0495 5.68589 10 94.0577C10 94.0577 34.1487 13.9539 108.168 17.5733C182.188 21.1907 203.711 78.555 204.237 112.147V112.145Z" fill="#8F00D3"/>
<path d="M15.7629 108.002H0.0129298C0.0129298 108.002 -3.66164 213.427 112.881 220.147V209.81C112.881 209.81 187.95 214.461 210 126.089C210 126.089 185.851 206.193 111.832 202.573C37.8124 198.956 16.2887 141.592 15.7629 108V108.002Z" fill="#8F00D3"/>
<g filter="url(#filter0_d_252_116)">
<circle cx="110" cy="110" r="84" fill="white"/>
</g>
<path d="M74.6959 86.5657H144.681C152.167 95.1184 159.645 103.671 167.13 112.224L109.974 171.083L53 112.604L74.6959 86.573V86.5657Z" stroke="#6B6B6B" stroke-width="4" stroke-miterlimit="10"/>
<path d="M53 112.604H78.4459C99.2646 112.604 120.091 112.604 140.909 112.604C149.652 112.604 158.387 112.604 167.13 112.604" stroke="#6B6B6B" stroke-width="4" stroke-miterlimit="10"/>
<path d="M142.606 112.604L109.894 86.6607C109.828 86.6096 109.733 86.6096 109.667 86.6607L77.145 112.604L109.872 169.431L142.598 112.604H142.606Z" stroke="#6B6B6B" stroke-width="4" stroke-miterlimit="10"/>
<path d="M103.08 55.3304C101.355 56.4707 99.5497 57.4942 97.671 58.386C96.8962 58.7588 96.1066 59.1096 95.3098 59.4313C95.1417 59.8918 94.9663 60.3377 94.7835 60.7909C93.9283 62.8816 92.9195 64.8918 91.7645 66.8216C90.6461 65.1257 89.6447 63.3567 88.7602 61.5219C88.3362 60.6374 87.9341 59.731 87.5686 58.8173C87.0423 58.6272 86.5233 58.4225 86.0116 58.2178C83.9648 57.3699 81.9912 56.383 80.1052 55.25C81.8304 54.1023 83.6359 53.079 85.5073 52.1945C86.3406 51.7924 87.1812 51.4196 88.0438 51.076C88.2046 50.6521 88.3727 50.2281 88.5408 49.8041C89.3742 47.8012 90.3537 45.8567 91.4648 44C92.5394 45.6228 93.5116 47.3187 94.3596 49.0731C94.7909 49.943 95.1856 50.8348 95.5584 51.7339C96.1286 51.9459 96.6988 52.1652 97.2616 52.3991C99.2719 53.2325 101.216 54.212 103.08 55.3304Z" fill="#8F00D3"/>
<path d="M81.4065 66.7558C79.9957 67.6842 78.5263 68.5248 76.9912 69.2485C76.3553 69.5555 75.712 69.8406 75.0614 70.1038C74.9225 70.4766 74.7837 70.8421 74.6302 71.2149C73.9284 72.9181 73.1097 74.5628 72.1667 76.1418C71.253 74.7602 70.4343 73.3128 69.7106 71.8143C69.367 71.0906 69.038 70.3523 68.7383 69.6067C68.307 69.4532 67.8831 69.2851 67.4664 69.1169C65.7924 68.4225 64.1842 67.6184 62.6418 66.6973C64.0527 65.7617 65.522 64.9283 67.0498 64.2046C67.7296 63.8757 68.4167 63.5687 69.1184 63.2909C69.25 62.9473 69.3889 62.5965 69.5278 62.2529C70.2077 60.6155 71.0044 59.0292 71.9181 57.5161C72.7953 58.8392 73.5922 60.228 74.2793 61.6608C74.6302 62.3698 74.9518 63.1008 75.2588 63.8318C75.7266 64.0073 76.1872 64.1827 76.6477 64.3728C78.2924 65.0526 79.8787 65.8494 81.3992 66.7631L81.4065 66.7558Z" fill="#8F00D3"/>
<path d="M92.8611 72.4722C91.8377 73.1447 90.7705 73.7515 89.6593 74.2851C89.1988 74.5044 88.731 74.7164 88.2632 74.9064C88.1609 75.1769 88.0585 75.4401 87.9488 75.7105C87.4445 76.9459 86.8451 78.1374 86.1579 79.2778C85.4927 78.2763 84.9006 77.2237 84.3816 76.1418C84.1331 75.6155 83.8919 75.0819 83.6726 74.5409C83.3582 74.4313 83.0512 74.307 82.7515 74.1827C81.538 73.6784 80.3684 73.0936 79.2573 72.4284C80.2807 71.7485 81.348 71.1418 82.4591 70.6228C82.9562 70.3816 83.4533 70.1623 83.9577 69.9576C84.0527 69.7091 84.1549 69.4532 84.25 69.2047C84.7471 68.0205 85.3245 66.8655 85.9824 65.769C86.6184 66.7266 87.1959 67.7354 87.693 68.7734C87.9489 69.2851 88.1828 69.8187 88.4021 70.3523C88.7383 70.4766 89.0746 70.6082 89.4108 70.7471C90.6024 71.2369 91.75 71.8216 92.8538 72.4795L92.8611 72.4722Z" fill="#8F00D3"/>
<defs>
<filter id="filter0_d_252_116" x="11.1" y="15.1" width="197.8" height="197.8" filterUnits="userSpaceOnUse" color-interpolation-filters="sRGB">
<feFlood flood-opacity="0" result="BackgroundImageFix"/>
<feColorMatrix in="SourceAlpha" type="matrix" values="0 0 0 0 0 0 0 0 0 0 0 0 0 0 0 0 0 0 127 0" result="hardAlpha"/>
<feMorphology radius="6" operator="dilate" in="SourceAlpha" result="effect1_dropShadow_252_116"/>
<feOffset dy="4"/>
<feGaussianBlur stdDeviation="4.45"/>
<feComposite in2="hardAlpha" operator="out"/>
<feColorMatrix type="matrix" values="0 0 0 0 0 0 0 0 0 0 0 0 0 0 0 0 0 0 0.25 0"/>
<feBlend mode="normal" in2="BackgroundImageFix" result="effect1_dropShadow_252_116"/>
<feBlend mode="normal" in="SourceGraphic" in2="effect1_dropShadow_252_116" result="shape"/>
</filter>
</defs>
</svg>
