<svg width="51" height="50" viewBox="0 0 51 50" fill="none" xmlns="http://www.w3.org/2000/svg">
<path d="M12.6873 25L12.0623 21.875C11.6457 21.7014 11.255 21.5191 10.8905 21.3281C10.5259 21.1371 10.1526 20.9028 9.77067 20.625L6.74984 21.5625L4.6665 18.0208L7.06234 15.9375C6.99289 15.4861 6.95817 15.0347 6.95817 14.5833C6.95817 14.1319 6.99289 13.6806 7.06234 13.2292L4.6665 11.1458L6.74984 7.60416L9.77067 8.54166C10.1526 8.26389 10.5259 8.02951 10.8905 7.83854C11.255 7.64757 11.6457 7.46528 12.0623 7.29166L12.6873 4.16666H16.854L17.479 7.29166C17.8957 7.46528 18.2863 7.64757 18.6509 7.83854C19.0155 8.02951 19.3887 8.26389 19.7707 8.54166L22.7915 7.60416L24.8748 11.1458L22.479 13.2292C22.5484 13.6806 22.5832 14.1319 22.5832 14.5833C22.5832 15.0347 22.5484 15.4861 22.479 15.9375L24.8748 18.0208L22.7915 21.5625L19.7707 20.625C19.3887 20.9028 19.0155 21.1371 18.6509 21.3281C18.2863 21.5191 17.8957 21.7014 17.479 21.875L16.854 25H12.6873ZM14.7707 18.75C15.9165 18.75 16.8974 18.342 17.7134 17.526C18.5293 16.7101 18.9373 15.7292 18.9373 14.5833C18.9373 13.4375 18.5293 12.4566 17.7134 11.6406C16.8974 10.8247 15.9165 10.4167 14.7707 10.4167C13.6248 10.4167 12.6439 10.8247 11.828 11.6406C11.012 12.4566 10.604 13.4375 10.604 14.5833C10.604 15.7292 11.012 16.7101 11.828 17.526C12.6439 18.342 13.6248 18.75 14.7707 18.75ZM31.3332 47.9167L30.3957 43.5417C29.8054 43.3333 29.2585 43.0816 28.755 42.7865C28.2516 42.4913 27.7568 42.1528 27.2707 41.7708L23.104 43.125L20.1873 38.125L23.5207 35.2083C23.4512 34.5833 23.4165 33.9583 23.4165 33.3333C23.4165 32.7083 23.4512 32.0833 23.5207 31.4583L20.1873 28.5417L23.104 23.5417L27.2707 24.8958C27.7568 24.5139 28.2516 24.1753 28.755 23.8802C29.2585 23.5851 29.8054 23.3333 30.3957 23.125L31.3332 18.75H37.1665L38.104 23.125C38.6943 23.3333 39.2411 23.5851 39.7446 23.8802C40.2481 24.1753 40.7429 24.5139 41.229 24.8958L45.3957 23.5417L48.3123 28.5417L44.979 31.4583C45.0484 32.0833 45.0832 32.7083 45.0832 33.3333C45.0832 33.9583 45.0484 34.5833 44.979 35.2083L48.3123 38.125L45.3957 43.125L41.229 41.7708C40.7429 42.1528 40.2481 42.4913 39.7446 42.7865C39.2411 43.0816 38.6943 43.3333 38.104 43.5417L37.1665 47.9167H31.3332ZM34.2498 39.5833C35.9859 39.5833 37.4616 38.9757 38.6769 37.7604C39.8922 36.5451 40.4998 35.0694 40.4998 33.3333C40.4998 31.5972 39.8922 30.1215 38.6769 28.9062C37.4616 27.691 35.9859 27.0833 34.2498 27.0833C32.5137 27.0833 31.038 27.691 29.8227 28.9062C28.6075 30.1215 27.9998 31.5972 27.9998 33.3333C27.9998 35.0694 28.6075 36.5451 29.8227 37.7604C31.038 38.9757 32.5137 39.5833 34.2498 39.5833Z" fill="#8F00D3"/>
</svg>
