<?xml version="1.0" encoding="UTF-8"?>
<svg id="Vetor" xmlns="http://www.w3.org/2000/svg" viewBox="0 0 1000 1000">
  <defs>
    <style>
      .cls-1 {
        fill: #fff;
        stroke-width: 0px;
      }
    </style>
  </defs>
  <g>
    <path class="cls-1" d="M572.95,689.49c-1.89,2.27-3.82,4.51-5.79,6.72,1.96-2.21,3.89-4.45,5.79-6.72Z"/>
    <path class="cls-1" d="M572.95,689.49c-1.89,2.27-3.82,4.51-5.79,6.72,1.96-2.21,3.89-4.45,5.79-6.72Z"/>
  </g>
  <path class="cls-1" d="M215.44,844.92c0,27.29-37.98,49.42-65.28,49.42s-49.42-22.13-49.42-49.42,22.13-49.42,49.42-49.42,65.28,21.75,65.28,49.42Z"/>
  <g>
    <path class="cls-1" d="M899.55,155.19c0,27.29-22.84,49.42-51.01,49.42h-136.2v-.08h-6.02v.08h6.02v689.87h-98.83V204.53h-9.21v.08h-250.69c-7.33,0-14.69.41-21.96,1.29-14.14,1.7-28.07,5.1-41.36,10.32-34.22,13.43-74.52,42.23-80,103.7-5.05,56.69,20.61,89.28,47.51,107.67,22.2,15.19,48.8,22.64,75.69,22.64h9.18l7.98.03,30.15.06c209.66-4.49,210.43,161.74,210.43,161.74,1.17,18.71,1.26,36.22.38,52.53-12.38,229.26-214.77,230.31-237.24,229.7-1.7-.06-3.4-.09-5.1-.09h-62.23c-27.28,0-58.58-22.11-58.58-49.39,0-13.63,7.82-25.98,19.06-34.92,11.24-8.94,25.88-14.47,39.52-14.47h52.26c1.35,0,2.7,0,4.05-.02h.14c.76.02,1.5.02,2.25.02,19.47-.69,38.75-4.38,56.91-11.5,34.19-13.43,74.52-42.23,79.98-103.73,5.07-56.69-20.59-89.25-47.49-107.67-22.2-15.16-48.8-22.61-75.69-22.61h-8.8l-7.98-.03-30.53-.05c-209.66,4.48-210.43-161.75-210.43-161.75-1.14-18.36-1.26-35.54-.43-51.59,11.87-230.37,214.79-231.39,237.29-230.78,1.7.03,3.4.06,5.1.06h504.87c14.08,0,26.84,5.53,36.07,14.48,9.23,8.94,14.94,21.29,14.94,34.94Z"/>
    <rect class="cls-1" x="706.32" y="204.53" width="6.02" height=".08"/>
    <rect class="cls-1" x="706.32" y="204.53" width="6.02" height=".08"/>
    <rect class="cls-1" x="706.32" y="204.53" width="6.02" height=".08"/>
  </g>
</svg>